<svg width="698" height="920" viewBox="0 0 698 920" fill="none" xmlns="http://www.w3.org/2000/svg">
<g clip-path="url(#clip0_124_680)">
<circle cx="4.08187" cy="14.0702" r="4.08187" fill="#553EFF"/>
<circle cx="53.0643" cy="14.0702" r="4.08187" fill="#553EFF"/>
<circle cx="104.088" cy="14.0701" r="6.12281" fill="#553EFF"/>
<circle cx="159.193" cy="14.0702" r="8.16374" fill="#553EFF"/>
<circle cx="218.38" cy="14.0702" r="10.2047" fill="#553EFF"/>
<circle cx="281.65" cy="14.0702" r="12.2456" fill="#553EFF"/>
<circle cx="348.999" cy="14.0702" r="14.2866" fill="#553EFF"/>
<circle cx="416.351" cy="14.0702" r="12.2456" fill="#553EFF"/>
<circle cx="479.621" cy="14.0702" r="10.2047" fill="#553EFF"/>
<circle cx="538.806" cy="14.0702" r="8.16374" fill="#553EFF"/>
<circle cx="593.912" cy="14.0701" r="6.12281" fill="#553EFF"/>
<circle cx="644.935" cy="14.0702" r="4.08187" fill="#553EFF"/>
<circle cx="693.918" cy="14.0702" r="4.08187" fill="#553EFF"/>
<circle cx="4.08187" cy="152.854" r="4.08187" fill="#553EFF"/>
<circle cx="53.0643" cy="152.854" r="4.08187" fill="#553EFF"/>
<circle cx="104.088" cy="152.854" r="6.12281" fill="#553EFF"/>
<circle cx="159.193" cy="152.854" r="8.16374" fill="#553EFF"/>
<circle cx="218.38" cy="152.854" r="10.2047" fill="#553EFF"/>
<circle cx="281.65" cy="152.854" r="12.2456" fill="#553EFF"/>
<circle cx="348.999" cy="152.854" r="14.2866" fill="#553EFF"/>
<circle cx="416.351" cy="152.854" r="12.2456" fill="#553EFF"/>
<circle cx="479.621" cy="152.854" r="10.2047" fill="#553EFF"/>
<circle cx="538.806" cy="152.854" r="8.16374" fill="#553EFF"/>
<circle cx="593.912" cy="152.854" r="6.12281" fill="#553EFF"/>
<circle cx="644.935" cy="152.854" r="4.08187" fill="#553EFF"/>
<circle cx="693.918" cy="152.854" r="4.08187" fill="#553EFF"/>
<circle cx="4.08187" cy="291.637" r="4.08187" fill="#553EFF"/>
<circle cx="53.0643" cy="291.637" r="4.08187" fill="#553EFF"/>
<circle cx="104.088" cy="291.637" r="6.12281" fill="#553EFF"/>
<circle cx="159.193" cy="291.638" r="8.16374" fill="#553EFF"/>
<circle cx="218.38" cy="291.637" r="10.2047" fill="#553EFF"/>
<circle cx="281.65" cy="291.637" r="12.2456" fill="#553EFF"/>
<circle cx="348.999" cy="291.637" r="14.2866" fill="#553EFF"/>
<circle cx="416.351" cy="291.637" r="12.2456" fill="#553EFF"/>
<circle cx="479.621" cy="291.637" r="10.2047" fill="#553EFF"/>
<circle cx="538.806" cy="291.638" r="8.16374" fill="#553EFF"/>
<circle cx="593.912" cy="291.637" r="6.12281" fill="#553EFF"/>
<circle cx="644.935" cy="291.637" r="4.08187" fill="#553EFF"/>
<circle cx="693.918" cy="291.637" r="4.08187" fill="#553EFF"/>
<circle cx="4.08187" cy="430.421" r="4.08187" fill="#553EFF"/>
<circle cx="53.0643" cy="430.421" r="4.08187" fill="#553EFF"/>
<circle cx="104.088" cy="430.421" r="6.12281" fill="#553EFF"/>
<circle cx="159.193" cy="430.421" r="8.16374" fill="#553EFF"/>
<circle cx="218.38" cy="430.421" r="10.2047" fill="#553EFF"/>
<circle cx="281.65" cy="430.421" r="12.2456" fill="#553EFF"/>
<circle cx="348.999" cy="430.421" r="14.2866" fill="#553EFF"/>
<circle cx="416.351" cy="430.421" r="12.2456" fill="#553EFF"/>
<circle cx="479.621" cy="430.421" r="10.2047" fill="#553EFF"/>
<circle cx="538.806" cy="430.421" r="8.16374" fill="#553EFF"/>
<circle cx="593.912" cy="430.421" r="6.12281" fill="#553EFF"/>
<circle cx="644.935" cy="430.421" r="4.08187" fill="#553EFF"/>
<circle cx="693.918" cy="430.421" r="4.08187" fill="#553EFF"/>
<circle cx="159.193" cy="569.205" r="8.16374" fill="#553EFF"/>
<circle cx="218.38" cy="569.205" r="10.2047" fill="#553EFF"/>
<circle cx="281.65" cy="569.205" r="12.2456" fill="#553EFF"/>
<circle cx="348.999" cy="569.205" r="14.2866" fill="#553EFF"/>
<circle cx="416.351" cy="569.205" r="12.2456" fill="#553EFF"/>
<circle cx="479.621" cy="569.205" r="10.2047" fill="#553EFF"/>
<circle cx="538.806" cy="569.205" r="8.16374" fill="#553EFF"/>
<circle cx="593.912" cy="569.205" r="6.12281" fill="#553EFF"/>
<circle cx="644.935" cy="569.205" r="4.08187" fill="#553EFF"/>
<circle cx="693.918" cy="569.205" r="4.08187" fill="#553EFF"/>
<circle cx="416.351" cy="707.988" r="12.2456" fill="#553EFF"/>
<circle cx="479.621" cy="707.988" r="10.2047" fill="#553EFF"/>
<circle cx="538.806" cy="707.988" r="8.16374" fill="#553EFF"/>
<circle cx="593.912" cy="707.988" r="6.12281" fill="#553EFF"/>
<circle cx="644.935" cy="707.988" r="4.08187" fill="#553EFF"/>
<circle cx="693.918" cy="707.988" r="4.08187" fill="#553EFF"/>
<circle cx="644.935" cy="846.772" r="4.08187" fill="#553EFF"/>
<circle cx="693.918" cy="846.772" r="4.08187" fill="#553EFF"/>
<circle cx="4.08187" cy="83.462" r="4.08187" fill="#553EFF"/>
<circle cx="53.0643" cy="83.462" r="4.08187" fill="#553EFF"/>
<circle cx="104.088" cy="83.462" r="6.12281" fill="#553EFF"/>
<circle cx="159.193" cy="83.462" r="8.16374" fill="#553EFF"/>
<circle cx="218.38" cy="83.4621" r="10.2047" fill="#553EFF"/>
<circle cx="281.65" cy="83.462" r="12.2456" fill="#553EFF"/>
<circle cx="348.999" cy="83.462" r="14.2866" fill="#553EFF"/>
<circle cx="416.351" cy="83.462" r="12.2456" fill="#553EFF"/>
<circle cx="479.621" cy="83.4621" r="10.2047" fill="#553EFF"/>
<circle cx="538.806" cy="83.462" r="8.16374" fill="#553EFF"/>
<circle cx="593.912" cy="83.462" r="6.12281" fill="#553EFF"/>
<circle cx="644.935" cy="83.462" r="4.08187" fill="#553EFF"/>
<circle cx="693.918" cy="83.462" r="4.08187" fill="#553EFF"/>
<circle cx="4.08187" cy="222.246" r="4.08187" fill="#553EFF"/>
<circle cx="53.0643" cy="222.246" r="4.08187" fill="#553EFF"/>
<circle cx="104.088" cy="222.246" r="6.12281" fill="#553EFF"/>
<circle cx="159.193" cy="222.246" r="8.16374" fill="#553EFF"/>
<circle cx="218.38" cy="222.246" r="10.2047" fill="#553EFF"/>
<circle cx="281.65" cy="222.246" r="12.2456" fill="#553EFF"/>
<circle cx="348.999" cy="222.246" r="14.2866" fill="#553EFF"/>
<circle cx="416.351" cy="222.246" r="12.2456" fill="#553EFF"/>
<circle cx="479.621" cy="222.246" r="10.2047" fill="#553EFF"/>
<circle cx="538.806" cy="222.246" r="8.16374" fill="#553EFF"/>
<circle cx="593.912" cy="222.246" r="6.12281" fill="#553EFF"/>
<circle cx="644.935" cy="222.246" r="4.08187" fill="#553EFF"/>
<circle cx="693.918" cy="222.246" r="4.08187" fill="#553EFF"/>
<circle cx="4.08187" cy="361.029" r="4.08187" fill="#553EFF"/>
<circle cx="53.0643" cy="361.029" r="4.08187" fill="#553EFF"/>
<circle cx="104.088" cy="361.029" r="6.12281" fill="#553EFF"/>
<circle cx="159.193" cy="361.029" r="8.16374" fill="#553EFF"/>
<circle cx="218.38" cy="361.029" r="10.2047" fill="#553EFF"/>
<circle cx="281.65" cy="361.029" r="12.2456" fill="#553EFF"/>
<circle cx="348.999" cy="361.029" r="14.2866" fill="#553EFF"/>
<circle cx="416.351" cy="361.029" r="12.2456" fill="#553EFF"/>
<circle cx="479.621" cy="361.029" r="10.2047" fill="#553EFF"/>
<circle cx="538.806" cy="361.029" r="8.16374" fill="#553EFF"/>
<circle cx="593.912" cy="361.029" r="6.12281" fill="#553EFF"/>
<circle cx="644.935" cy="361.029" r="4.08187" fill="#553EFF"/>
<circle cx="693.918" cy="361.029" r="4.08187" fill="#553EFF"/>
<circle cx="53.0643" cy="499.813" r="4.08187" fill="#553EFF"/>
<circle cx="104.088" cy="499.813" r="6.12281" fill="#553EFF"/>
<circle cx="159.193" cy="499.813" r="8.16374" fill="#553EFF"/>
<circle cx="218.38" cy="499.813" r="10.2047" fill="#553EFF"/>
<circle cx="281.65" cy="499.813" r="12.2456" fill="#553EFF"/>
<circle cx="348.999" cy="499.813" r="14.2866" fill="#553EFF"/>
<circle cx="416.351" cy="499.813" r="12.2456" fill="#553EFF"/>
<circle cx="479.621" cy="499.813" r="10.2047" fill="#553EFF"/>
<circle cx="538.806" cy="499.813" r="8.16374" fill="#553EFF"/>
<circle cx="593.912" cy="499.813" r="6.12281" fill="#553EFF"/>
<circle cx="644.935" cy="499.813" r="4.08187" fill="#553EFF"/>
<circle cx="693.918" cy="499.813" r="4.08187" fill="#553EFF"/>
<circle cx="281.65" cy="638.596" r="12.2456" fill="#553EFF"/>
<circle cx="348.999" cy="638.597" r="14.2866" fill="#553EFF"/>
<circle cx="416.351" cy="638.596" r="12.2456" fill="#553EFF"/>
<circle cx="479.621" cy="638.596" r="10.2047" fill="#553EFF"/>
<circle cx="538.806" cy="638.596" r="8.16374" fill="#553EFF"/>
<circle cx="593.912" cy="638.596" r="6.12281" fill="#553EFF"/>
<circle cx="644.935" cy="638.596" r="4.08187" fill="#553EFF"/>
<circle cx="693.918" cy="638.596" r="4.08187" fill="#553EFF"/>
<circle cx="538.806" cy="777.38" r="8.16374" fill="#553EFF"/>
<circle cx="593.912" cy="777.38" r="6.12281" fill="#553EFF"/>
<circle cx="644.935" cy="777.38" r="4.08187" fill="#553EFF"/>
<circle cx="693.918" cy="777.38" r="4.08187" fill="#553EFF"/>
<circle cx="693.918" cy="916.164" r="4.08187" fill="#553EFF"/>
<rect y="-139" width="698" height="1059" fill="url(#paint0_linear_124_680)"/>
</g>
<defs>
<linearGradient id="paint0_linear_124_680" x1="349" y1="3" x2="349" y2="920" gradientUnits="userSpaceOnUse">
<stop stop-color="#04040A"/>
<stop offset="1" stop-color="#04040A" stop-opacity="0"/>
</linearGradient>
<clipPath id="clip0_124_680">
<rect width="698" height="920" fill="white"/>
</clipPath>
</defs>
</svg>
