<svg width="89" height="86" viewBox="0 0 89 86" fill="none" xmlns="http://www.w3.org/2000/svg">
<g clip-path="url(#clip0_595_1573)">
<path d="M0 77.2931C0.628192 75.7942 1.75755 75.1799 3.36268 75.3346C3.98625 75.3946 4.62137 75.3438 5.37659 75.3438C5.37659 74.912 5.37659 74.5494 5.37659 74.1868C5.37659 59.5212 5.37659 44.858 5.37659 30.1925C5.37659 27.2709 6.96785 25.0861 9.62843 24.4071C10.2335 24.2524 10.8848 24.2247 11.513 24.2201C14.4854 24.2016 17.4601 24.2108 20.4324 24.2108C20.7465 24.2108 21.0606 24.2108 21.3608 24.2108C21.4255 24.0722 21.4948 23.996 21.4879 23.9244C21.28 21.9429 22.2708 20.7904 24.0422 20.1137C24.742 19.8458 25.3864 19.4347 26.0561 19.0883L25.9637 18.8134C25.7605 18.788 25.555 18.7395 25.3517 18.7395C22.4071 18.7349 19.4624 18.7488 16.5178 18.7257C16.0189 18.7211 15.7764 18.885 15.5385 19.3285C14.6586 20.9682 12.8202 21.7465 11.0511 21.2962C9.29586 20.8481 8.07412 19.2407 8.08798 17.3954C8.10183 15.5893 9.3282 14.005 11.0419 13.5754C12.8294 13.1274 14.654 13.8872 15.5293 15.5316C15.7903 16.0235 16.0697 16.1529 16.5894 16.1482C19.8758 16.1251 23.1646 16.1367 26.5111 16.1367C26.2155 15.0466 25.6681 14.005 25.742 13.0119C25.8136 12.0511 26.5296 11.1389 27.04 10.0372C25.6589 8.65382 24.0792 7.06024 22.474 5.49207C22.3147 5.33502 22.0052 5.29114 21.7581 5.27266C21.3285 5.23802 20.8897 5.28883 20.4601 5.2565C19.3446 5.17335 18.4786 5.25649 17.7765 6.46207C16.9196 7.93786 14.908 8.31662 13.2983 7.68612C11.6885 7.05562 10.6423 5.42509 10.7601 3.73451C10.8802 2.00699 12.0788 0.568147 13.7648 0.122408C15.4138 -0.311784 17.2522 0.371837 18.0906 1.89151C18.4508 2.5428 18.8481 2.67906 19.5109 2.67444C23.8551 2.64211 23.1092 2.46658 26.0538 5.38583C27.0538 6.37893 28.0308 7.39974 28.9754 8.36512C29.144 8.32124 29.2202 8.32586 29.2456 8.29122C30.4743 6.76462 31.9662 6.47362 33.7122 7.31891C33.9178 7.41822 34.1718 7.42745 34.3635 7.54524C35.6846 8.35127 36.7747 7.46903 37.9202 7.05562C38.0934 6.99326 38.2043 6.70919 38.3082 6.50826C38.6916 5.7669 39.0726 5.02092 39.4329 4.26802C39.9318 3.2218 40.7725 2.69523 41.9064 2.67444C43.5231 2.64673 45.1398 2.64673 46.7565 2.67444C47.8904 2.69292 48.738 3.21256 49.2346 4.26109C49.3939 4.60059 49.6249 4.91468 49.7265 5.27035C50.1561 6.76924 51.2854 7.45055 52.6619 7.8501C52.8883 7.91477 53.1654 7.90553 53.394 7.84086C54.0846 7.63993 54.7775 7.42976 55.4426 7.15724C56.8745 6.56831 58.087 6.81543 59.1055 7.99329C59.2187 8.12262 59.3526 8.23348 59.7499 8.60993C60.1771 8.06489 60.5582 7.4875 61.0294 6.99557C62.0848 5.88931 63.198 4.83616 64.2627 3.73682C64.9694 3.00701 65.8147 2.6652 66.817 2.6652C67.7108 2.6652 68.6069 2.6398 69.5007 2.67444C69.9672 2.69292 70.2028 2.53356 70.4314 2.11553C71.3853 0.383385 73.2583 -0.376451 75.0644 0.173218C76.8543 0.715957 78.0552 2.43194 77.9143 4.24492C77.7688 6.13412 76.3831 7.61915 74.4708 7.93555C72.905 8.19422 71.2421 7.36972 70.4361 5.84773C70.1936 5.39045 69.9118 5.31423 69.4453 5.24033C67.272 4.89159 65.6346 5.63295 64.2789 7.35355C63.4497 8.4067 62.3804 9.27046 61.3157 10.319C63.8978 11.9495 62.8516 14.0373 62.0871 16.1367H66.5445C68.0734 16.1367 69.6046 16.1067 71.1336 16.1482C72.1313 16.176 72.8888 16.1298 73.5101 15.0443C74.3623 13.5546 76.3369 13.1043 77.9605 13.6886C79.6673 14.3029 80.695 15.8919 80.5772 17.7395C80.471 19.4162 79.2585 20.8759 77.628 21.2939C75.9235 21.7304 74.0805 21.0237 73.2421 19.4694C72.9073 18.8481 72.5354 18.7164 71.9026 18.7234C69.1312 18.7511 66.3597 18.7349 63.5883 18.7349C63.3112 18.7349 63.034 18.7349 62.7592 18.7349C62.7292 18.8019 62.6968 18.8666 62.6668 18.9335C62.8839 19.1137 63.0779 19.3308 63.3204 19.4647C63.9509 19.8112 64.5883 20.1576 65.2512 20.437C66.6184 21.0144 67.2466 22.0237 67.1773 23.4949C67.1681 23.6935 67.2004 23.8921 67.2212 24.2131C67.5468 24.2131 67.854 24.2131 68.1612 24.2131C71.1636 24.2131 74.166 24.2062 77.1684 24.2131C81.0114 24.2247 83.3048 26.525 83.3071 30.3634C83.3071 44.9712 83.3071 59.5767 83.3071 74.1844C83.3071 74.5286 83.3071 74.8727 83.3071 75.3415C84.0138 75.3415 84.672 75.3923 85.321 75.3323C86.9284 75.1775 88.0555 75.7942 88.6837 77.2908V81.2747C88.3488 82.0345 88.1178 82.8614 87.6606 83.5404C86.4273 85.3764 84.605 86 82.4341 85.9977C57.0385 85.9769 31.6429 85.9838 6.24728 85.9838C5.95859 85.9838 5.6699 85.9838 5.38121 85.9677C3.35113 85.8614 1.80836 84.9122 0.780621 83.1824C0.436501 82.6004 0.256358 81.9168 0 81.277C0 79.949 0 78.6211 0 77.2931ZM2.61439 77.9421C2.61439 78.9421 2.55665 79.8359 2.62825 80.7204C2.72756 81.9745 3.73913 83.0715 4.95856 83.314C5.3789 83.3972 5.82002 83.3856 6.2519 83.3856C31.6544 83.3879 57.0593 83.3879 82.4618 83.3856C82.7205 83.3856 82.9814 83.3856 83.2401 83.3695C84.6512 83.2817 85.8614 82.2586 86.0277 80.8567C86.1386 79.9259 86.0485 78.9721 86.0485 77.9836C85.7459 77.9675 85.4942 77.9421 85.2425 77.9421C75.6002 77.9421 65.9579 77.9351 56.3179 77.9628C55.9161 77.9628 55.4033 78.1753 55.1354 78.464C53.7058 80.0091 51.9875 80.6627 49.8836 80.6234C46.1606 80.5518 42.4353 80.5588 38.7124 80.6234C36.6707 80.6581 35.0102 80.0022 33.6083 78.5241C33.3011 78.2007 32.7284 77.9721 32.2757 77.9675C28.2063 77.9259 24.1346 77.9444 20.0652 77.9398C19.7211 77.9398 19.3677 77.9305 19.0375 77.8474C18.3908 77.688 18.0605 77.2099 18.0952 76.5702C18.1321 75.8935 18.5178 75.4455 19.2292 75.3646C19.4855 75.3369 19.7488 75.3461 20.0075 75.3461C24.0491 75.3461 28.0908 75.4085 32.1302 75.3115C33.5852 75.2769 34.6938 75.6164 35.5876 76.7734C36.3289 77.7342 37.3659 78.0344 38.5761 78.0206C42.1836 77.9813 45.7957 77.9305 49.4009 78.0391C51.1677 78.0922 52.5718 77.6349 53.6458 76.2376C54.2093 75.5032 54.9437 75.3254 55.8468 75.3277C63.7846 75.3554 71.7248 75.3438 79.6626 75.3438H80.7135C80.7135 74.9512 80.7135 74.6926 80.7135 74.4339C80.7135 59.7106 80.7135 44.9897 80.7135 30.2664C80.7135 27.9869 79.5402 26.8137 77.233 26.8113C55.2948 26.8067 33.3542 26.8067 11.416 26.8113C9.12958 26.8113 7.97712 27.9984 7.97712 30.3034C7.97712 44.9966 7.97712 59.6898 7.97712 74.3831C7.97712 74.6856 8.00483 74.9882 8.01869 75.3046C8.31893 75.3184 8.51986 75.3369 8.71848 75.3369C10.2474 75.3415 11.7786 75.33 13.3075 75.3484C14.0466 75.3577 14.4969 75.7549 14.5754 76.5009C14.6517 77.2215 14.2152 77.7665 13.4553 77.8936C13.1458 77.9467 12.8225 77.9328 12.5061 77.9328C9.24505 77.9351 5.9863 77.9328 2.6167 77.9328L2.61439 77.9421ZM24.1993 24.1231C24.2732 24.1485 24.3517 24.1993 24.4325 24.1993C27.8091 24.2062 31.1856 24.2224 34.5621 24.1877C34.7677 24.1877 35.0379 23.8228 35.1603 23.5734C35.7954 22.2939 36.3613 20.9798 37.0218 19.7142C37.1696 19.4301 37.6084 19.1183 37.9017 19.1298C38.3359 19.146 38.8694 19.3354 39.165 19.6403C39.62 20.1045 39.486 20.7142 39.0957 21.22C38.4283 22.093 37.904 23.0237 37.7447 24.1623H50.9321C50.8905 23.9383 50.8767 23.7697 50.8305 23.6126C49.9667 20.6426 47.3107 18.7418 44.0428 18.7511C42.9411 18.7534 42.3568 18.3146 42.3522 17.4762C42.3476 16.6517 42.948 16.1806 44.0312 16.1529C48.5717 16.042 52.4702 19.049 53.4679 23.4949C53.5996 24.0792 53.8144 24.2316 54.371 24.227C57.5166 24.2062 60.6621 24.2177 63.81 24.2131C64.0364 24.2131 64.2604 24.1785 64.4682 24.16C64.7685 23.354 64.5191 22.8851 63.7569 22.5826C63.064 22.3055 62.3619 21.996 61.7569 21.5687C61.2395 21.2015 60.6575 20.7234 60.4404 20.1645C59.0501 16.5963 58.7637 17.8596 60.0894 13.9542C60.1356 13.8179 60.2372 13.6747 60.2187 13.5477C60.1725 13.2151 60.1748 12.7994 59.9762 12.58C59.2672 11.7855 58.4334 11.0973 57.7406 10.289C57.154 9.60534 56.572 9.37901 55.7405 9.79934C53.9252 10.7185 52.1631 10.7116 50.3039 9.7416C49.2808 9.2081 48.3408 8.69539 48.0036 7.57526C47.4262 5.64912 46.2437 5.14564 44.2506 5.17797C42.4145 5.20799 41.4284 5.66528 40.7124 7.39743C39.6985 9.85246 36.5322 11.1527 34.0933 10.1596C32.4351 9.48294 31.4073 9.74391 30.0886 11.0257C28.622 12.453 28.1024 13.6609 29.0585 15.5247C29.368 16.1275 29.4234 17.0189 29.241 17.6818C28.6474 19.8504 27.6705 21.7858 25.2316 22.4394C25.1231 22.4694 25.0307 22.5526 24.9221 22.5895C24.1646 22.8505 23.8829 23.3378 24.19 24.1231H24.1993ZM16.1205 3.94699C16.0997 3.18254 15.4993 2.61208 14.7256 2.62132C13.9657 2.63287 13.3583 3.24027 13.3583 3.98856C13.3583 4.7484 14.0604 5.41816 14.8133 5.3789C15.5616 5.33964 16.1413 4.70221 16.1205 3.94468V3.94699ZM75.323 4.08325C75.3785 3.34651 74.7965 2.67906 74.0505 2.62594C73.2745 2.5682 72.6347 3.09939 72.5678 3.85692C72.4985 4.64909 73.0828 5.33502 73.8634 5.38121C74.5817 5.42278 75.2676 4.81307 75.323 4.08556V4.08325ZM13.4507 17.4531C13.4576 16.7164 12.841 16.0813 12.0973 16.0605C11.3375 16.0397 10.7255 16.6171 10.6977 17.3792C10.6677 18.1876 11.2705 18.8134 12.0696 18.8065C12.8248 18.8019 13.4438 18.1945 13.453 17.4508L13.4507 17.4531ZM76.584 18.8065C77.3531 18.8273 77.9605 18.2615 77.9882 17.497C78.016 16.7233 77.464 16.109 76.7041 16.0628C75.9258 16.0166 75.2468 16.6448 75.2353 17.4208C75.2237 18.1691 75.8242 18.7857 76.584 18.8065Z" fill="#C5C5C5"/>
<path d="M44.4354 29.6035C54.9114 29.6035 65.3898 29.6035 75.8658 29.6035C77.6256 29.6035 77.9328 29.9107 77.9328 31.659C77.9328 44.6178 77.9328 57.5766 77.9328 70.5353C77.9328 72.2028 77.5771 72.5585 75.8935 72.5585C54.8537 72.5585 33.8138 72.5585 12.774 72.5585C11.0996 72.5585 10.7509 72.2028 10.7509 70.5215C10.7509 57.5627 10.7509 44.6039 10.7509 31.6451C10.7509 29.9084 11.0627 29.6035 12.8318 29.6035C23.3655 29.6035 33.9016 29.6035 44.4354 29.6035ZM75.3046 32.2479H13.4184V69.8979H75.3046V32.2479Z" fill="#C5C5C5"/>
<path d="M47.0936 42.9596C46.0775 42.9596 45.1837 42.9919 44.2945 42.9527C42.2344 42.8603 40.6293 41.4099 40.3822 39.4584C40.1397 37.5276 41.3406 35.7008 43.2321 35.1465C43.5046 35.0656 43.7979 35.0079 44.0797 35.0079C48.7265 34.9987 53.3756 34.9663 58.0223 35.0148C60.0547 35.0356 61.616 36.6615 61.78 38.7286C61.9347 40.6524 60.5305 42.5023 58.5605 42.8395C57.7152 42.985 56.8376 42.9319 55.9738 42.9642C55.7174 42.9735 55.4588 42.9642 55.0661 42.9642C55.0661 43.5993 55.0777 44.1929 55.0638 44.7864C55.0384 45.7287 54.5373 46.2946 53.752 46.29C52.9599 46.2853 52.4841 45.731 52.4725 44.7703C52.461 43.7887 52.4587 42.8072 52.4725 41.8256C52.4887 40.8487 52.9345 40.3914 53.8998 40.3752C55.0823 40.3545 56.2671 40.3776 57.4496 40.366C58.5212 40.3545 59.1817 39.8094 59.1817 38.9618C59.1817 38.105 58.5512 37.5876 57.4496 37.5876C53.177 37.5807 48.9043 37.5807 44.6317 37.5876C43.5878 37.5876 42.9781 38.0957 42.9573 38.9249C42.9342 39.7863 43.5809 40.3498 44.6432 40.3637C45.7403 40.3776 46.8373 40.3637 47.9343 40.3683C49.2715 40.3752 49.6849 40.7863 49.6849 42.1305C49.6873 48.8859 49.6849 55.6412 49.6849 62.3943C49.6849 62.683 49.6688 62.974 49.6988 63.2604C49.775 64.0295 50.2208 64.4798 50.9806 64.5306C51.7497 64.5814 52.237 64.1634 52.4171 63.4267C52.4841 63.1518 52.4633 62.8539 52.4633 62.5652C52.4656 58.8122 52.4633 55.0592 52.4679 51.3063C52.4679 50.3963 52.9206 49.8351 53.6504 49.7727C54.3871 49.7104 55.0431 50.2716 55.0477 51.1007C55.0661 55.2278 55.1193 59.3573 55.0176 63.4844C54.9645 65.6369 53.0615 67.2143 50.9506 67.1473C48.7773 67.0803 47.1052 65.3944 47.0983 63.168C47.0775 56.8168 47.089 50.4656 47.089 44.1167C47.089 43.7749 47.089 43.4331 47.089 42.9596H47.0936Z" fill="#553EFF"/>
<path d="M37.5761 51.1006C37.5761 55.11 37.5899 59.1193 37.5691 63.1287C37.5599 64.9855 36.3867 66.5121 34.6799 67.0041C33.0263 67.4821 31.1971 66.8609 30.2987 65.3735C29.9269 64.7592 29.6405 63.9809 29.6359 63.2765C29.5897 55.1423 29.592 47.0082 29.6151 38.874C29.622 36.6846 31.3773 35.0055 33.5482 34.9917C35.7862 34.9778 37.5484 36.6892 37.5668 38.9848C37.5969 43.0219 37.5761 47.0613 37.5761 51.0983V51.1006ZM32.1995 51.0568C32.1995 54.8629 32.1995 58.669 32.1995 62.4751C32.1995 62.7337 32.1856 62.997 32.211 63.2534C32.2872 64.0202 32.7214 64.4613 33.4836 64.5352C34.2111 64.6068 34.8254 64.1056 34.9524 63.3596C34.9917 63.1356 34.9778 62.9 34.9778 62.6691C34.9778 54.9414 34.9802 47.2137 34.9732 39.486C34.9732 39.1188 34.9432 38.7262 34.8139 38.3913C34.5783 37.7816 34.061 37.5414 33.4212 37.6084C32.7676 37.6753 32.375 38.068 32.2364 38.6892C32.1741 38.9664 32.2018 39.2643 32.2018 39.5507C32.2018 43.3845 32.2018 47.2206 32.2018 51.0544L32.1995 51.0568Z" fill="#553EFF"/>
</g>
<defs>
<clipPath id="clip0_595_1573">
<rect width="88.686" height="86" fill="white"/>
</clipPath>
</defs>
</svg>
