<svg width="89" height="86" viewBox="0 0 89 86" fill="none" xmlns="http://www.w3.org/2000/svg">
<path d="M68.134 62.6742C71.0413 63.3113 73.456 64.6992 75.1307 67.1686C77.4578 70.5969 77.7643 74.2682 75.8641 77.9438C73.9507 81.6413 70.7742 83.6247 66.595 83.6379C51.7633 83.686 36.9338 83.6641 22.102 83.6532C16.559 83.6488 12.0799 79.5879 11.5261 74.1171C10.9875 68.7952 14.7069 63.9177 20.1252 62.8428C20.2215 62.8231 20.32 62.81 20.4076 62.672C17.1632 62.672 13.921 62.6786 10.6767 62.6655C10.1075 62.6655 9.52733 62.6348 8.9669 62.5319C5.90861 61.9671 3.64499 59.362 3.63842 56.2555C3.61215 43.9348 3.60996 31.614 3.63842 19.2955C3.64718 15.7162 6.54347 12.8724 10.1403 12.8461C14.6194 12.8133 19.0985 12.8374 23.5775 12.8374C23.8774 12.8374 24.1752 12.8374 24.6043 12.8374C24.6043 11.6224 24.543 10.4293 24.624 9.24494C24.6896 8.30359 24.7684 7.3097 25.1209 6.45372C26.1695 3.89456 28.1704 2.40373 30.9266 2.38184C39.8301 2.30522 48.7335 2.32054 57.6391 2.37089C61.0498 2.39059 63.8367 5.26937 63.9286 8.69326C63.9636 10.0309 63.9352 11.3684 63.9352 12.8396H64.824C69.2221 12.8396 73.618 12.8352 78.016 12.8396C82.1186 12.844 84.9163 15.6308 84.9185 19.729C84.9251 31.7498 84.9251 43.7684 84.9185 55.7892C84.9185 59.8786 82.1098 62.6677 78.0095 62.6742C74.9774 62.6786 71.9454 62.6742 68.9134 62.6742H68.1362H68.134ZM29.8671 73.1298C29.8495 72.8758 29.843 72.7116 29.8277 72.5496C29.4445 68.4252 26.0841 65.31 22.0079 65.2991C17.9623 65.2881 14.5712 68.3552 14.1443 72.4139C13.6539 77.055 17.3624 81.0284 22.229 81.0306C36.925 81.0393 51.621 81.0349 66.317 81.0306C66.8337 81.0306 67.3547 80.9846 67.8626 80.9014C71.2646 80.3497 73.7668 77.7599 74.3513 74.2134C74.8636 71.096 73.1429 67.7509 70.2313 66.2141C67.254 64.6423 63.6396 65.1327 61.1899 67.4357C59.5568 68.9725 58.784 70.8946 58.6658 73.1145H56.1264C56.0235 71.3762 56.6364 69.2221 57.7026 67.5736C59.478 64.8284 62.035 63.2719 65.2071 62.7465C65.5705 56.6934 60.4785 50.6665 54.2984 49.7318C50.9139 49.2195 47.7571 49.8346 44.9199 51.7458C41.0757 54.3334 39.1799 58.0463 38.985 62.6348H36.3077C36.485 61.4242 36.5769 60.2596 36.8418 59.1343C37.1155 57.9784 37.5577 56.8619 37.9255 55.7236C31.9358 52.8907 24.7772 56.8992 23.7001 62.7815C29.3285 64.4847 33.153 69.0535 32.3518 73.132H29.8671V73.1298ZM61.3169 49.8346V49.0028C61.3169 35.7801 61.3169 22.5552 61.3169 9.3325C61.3169 6.55224 59.7276 4.97164 56.9407 4.97164C48.4992 4.97164 40.0599 4.97164 31.6184 4.97164C28.79 4.97164 27.2269 6.55005 27.2247 9.39818C27.2247 23.9059 27.2247 38.4137 27.2247 52.9214V53.8737C28.1661 53.4643 29.0001 53.1031 29.8474 52.7331V51.7195C29.8474 38.0306 29.8474 24.3438 29.8474 10.6548C29.8474 8.6035 30.8588 7.59429 32.9144 7.59429C40.4255 7.59429 47.9388 7.59429 55.4499 7.59429C57.7551 7.59429 58.6921 8.52469 58.6921 10.8102C58.6921 22.9952 58.6921 35.1802 58.6921 47.3652C58.6921 47.5842 58.6527 47.8118 58.7052 48.0176C58.7512 48.2015 58.8541 48.4292 59.0029 48.5189C59.721 48.9568 60.4609 49.353 61.3147 49.8325L61.3169 49.8346ZM32.5247 41.7193V52.2165C34.6723 52.0698 36.7192 52.3216 38.6501 53.1666C39.2346 53.4227 39.5148 53.3133 39.9176 52.8316C43.5867 48.4686 48.2519 46.4808 53.9591 47.0675C54.6487 47.1376 55.3295 47.2777 56.0147 47.3849V41.715H32.5247V41.7193ZM56.0366 10.2739H32.5379V18.0433H56.0366V10.2739ZM56.0125 39.0354V31.266H32.5182V39.0354H56.0125ZM56.0366 20.7622H32.5379V28.5339H56.0366V20.7622ZM24.5692 15.46C19.915 15.46 15.3549 15.46 10.7971 15.46C7.77598 15.46 6.25012 16.975 6.25012 19.9741C6.25012 31.8527 6.25012 43.7334 6.25012 55.6119C6.25012 55.8571 6.24355 56.1045 6.25888 56.3497C6.3552 57.9215 7.44979 59.3423 8.87277 59.6794C8.87277 59.3445 8.87277 59.0249 8.87277 58.703C8.87277 46.1678 8.87277 33.6325 8.87277 21.0994C8.87277 19.105 9.89949 18.0849 11.9004 18.0849C15.8322 18.0849 19.764 18.0849 23.6957 18.0849H24.5692V15.4622V15.46ZM63.9724 18.0827C68.2085 18.0827 72.357 18.0827 76.5033 18.0827C78.7297 18.0827 79.6754 19.035 79.6754 21.2855C79.6754 33.766 79.6754 46.2444 79.6754 58.7249V59.6969C81.3261 59.2263 82.2959 57.7683 82.2981 55.8374C82.3003 43.8209 82.3003 31.8067 82.2981 19.7902C82.2981 17.0603 80.7 15.4644 77.9744 15.4622C73.5785 15.46 69.1827 15.4622 64.7868 15.4622C64.5241 15.4622 64.2592 15.4863 63.9724 15.4994V18.0827ZM63.9768 39.0069H76.9871V31.2397H63.9768V39.0069ZM11.5348 31.2309V39.0179H24.5495V31.2309H11.5348ZM11.5217 60.0253H21.5241C22.5355 58.6571 23.4593 57.4158 24.3722 56.1658C24.4773 56.0213 24.5911 55.8352 24.5933 55.6666C24.613 54.5283 24.6043 53.3899 24.6043 52.2296H11.5239V60.0253H11.5217ZM11.5567 20.736V28.5339H24.5539V20.736H11.5567ZM63.9833 20.7425V28.5273H76.9959V20.7425H63.9833ZM24.567 41.7478H11.5567V49.5172H24.567V41.7478ZM77.0156 41.7478H64.0052V49.515H77.0156V41.7478ZM67.7838 60.0078H77.0046V52.2449H64.0797C64.8284 53.4687 65.6712 54.6224 66.2754 55.8899C66.8906 57.1794 67.2737 58.5826 67.7838 60.0078Z" fill="#C5C5C5"/>
<path d="M49.1582 52.6696C55.3645 50.6972 61.8314 55.2463 62.44 61.1834C61.6234 61.3016 60.8025 61.422 59.9881 61.5402C58.8475 56.2358 54.1451 53.9722 49.9003 55.1018C49.6595 54.3115 49.4187 53.5168 49.1604 52.6696H49.1582Z" fill="#553EFF"/>
<path d="M22.0145 78.3509V75.8356H24.5649V78.3509H22.0145Z" fill="#553EFF"/>
<path d="M27.2729 75.829H29.7883V78.3597H27.2729V75.829Z" fill="#553EFF"/>
<path d="M35.0576 75.8488V78.3685H32.5379V75.8488H35.0576Z" fill="#553EFF"/>
<path d="M35.1627 44.3333H37.654V46.8837H35.1627V44.3333Z" fill="#553EFF"/>
<path d="M40.3752 46.8814V44.3573H42.8949V46.8814H40.3752Z" fill="#553EFF"/>
<path d="M45.6511 12.8571H48.1424V15.4075H45.6511V12.8571Z" fill="#553EFF"/>
<path d="M53.3855 15.4337H50.8789V12.8833H53.3855V15.4337Z" fill="#553EFF"/>
<path d="M45.6467 33.8536H48.1555V36.404H45.6467V33.8536Z" fill="#553EFF"/>
<path d="M50.8964 33.8405H53.3877V36.3909H50.8964V33.8405Z" fill="#553EFF"/>
<path d="M35.1321 25.9091V23.3937H37.6628V25.9091H35.1321Z" fill="#553EFF"/>
<path d="M42.9234 23.3761V25.898H40.3883V23.3761H42.9234Z" fill="#553EFF"/>
<path d="M16.7013 23.3761V25.898H14.1662V23.3761H16.7013Z" fill="#553EFF"/>
<path d="M21.9444 23.3761V25.898H19.4093V23.3761H21.9444Z" fill="#553EFF"/>
<path d="M69.1411 25.9178H66.6191V23.3827H69.1411V25.9178Z" fill="#553EFF"/>
<path d="M71.8381 25.8915V23.3805H74.3885V25.8915H71.8381Z" fill="#553EFF"/>
<path d="M14.175 44.3485H16.6904V46.8989H14.175V44.3485Z" fill="#553EFF"/>
<path d="M21.916 46.9077H19.4093V44.3573H21.916V46.9077Z" fill="#553EFF"/>
<path d="M66.5951 46.899V44.3683H69.1389V46.899H66.5951Z" fill="#553EFF"/>
<path d="M71.8381 46.899V44.3683H74.382V46.899H71.8381Z" fill="#553EFF"/>
</svg>
