<svg width="89" height="86" viewBox="0 0 89 86" fill="none" xmlns="http://www.w3.org/2000/svg">
<path d="M86.2342 55.9578C85.5906 57.4224 84.3099 58.1361 82.9351 58.7052C79.9644 59.9356 76.8207 60.4938 73.6727 61.0302C73.4844 61.063 73.2939 61.0871 73.1079 61.1199C71.9169 61.3257 71.3302 60.8528 71.3259 59.6553C71.3171 57.2801 71.3259 54.9026 71.3215 52.5274C71.3215 52.3128 71.2996 52.0983 71.2821 51.7874C69.0163 51.54 66.768 51.2817 64.5175 51.054C63.1865 50.9205 61.8511 50.8461 60.52 50.7191C60.0844 50.6775 59.8392 50.8067 59.6093 51.1985C57.9653 54.0073 55.8286 56.4 53.3811 58.5323C53.1622 58.7228 53.0046 59.1278 53.0243 59.4167C53.1031 60.5048 53.2673 61.5862 53.4008 62.6677C53.4183 62.8034 53.4161 62.9435 53.4555 63.0727C53.5978 63.5346 56.2555 64.268 56.5861 63.9155C57.5537 62.8866 58.6943 62.7859 59.9662 63.1843C61.3191 63.609 62.6808 63.9987 64.0359 64.419C69.2439 66.0325 72.3482 69.5154 73.3158 74.8877C73.6967 77.009 74.0842 79.1282 74.4476 81.2517C74.6162 82.2302 74.2769 82.8345 73.5413 82.9768C72.7795 83.1234 72.2103 82.6396 72.0286 81.6435C71.6236 79.4171 71.2668 77.1798 70.8289 74.9578C70.0408 70.9494 67.6984 68.2523 63.8257 66.9344C62.3546 66.4353 60.8528 66.0281 59.3641 65.5837C58.4534 65.3122 58.3681 65.3472 58.2893 66.2798C57.9828 69.8504 57.4683 73.3859 56.3956 76.8098C55.8439 78.5721 55.1127 80.2841 54.4013 81.9916C54.005 82.9395 53.3023 83.2219 52.5974 82.8585C51.9165 82.5083 51.7545 81.8252 52.188 80.9496C54.3312 76.6281 55.1959 71.9761 55.7476 67.2409C55.8067 66.7374 55.6622 66.4922 55.1543 66.3915C54.6552 66.293 54.1758 66.1069 53.6066 65.9339C53.3307 67.6327 52.6061 69.0382 51.3473 70.135C50.9774 70.4568 50.5899 70.7655 50.1805 71.0304C49.4712 71.4857 48.7904 71.3763 48.381 70.7852C47.9782 70.205 48.1446 69.5111 48.8035 69.0141C49.1078 68.7843 49.4252 68.5653 49.7076 68.3136C50.7738 67.3613 51.2904 66.166 51.1547 64.7365C51.0233 63.3529 50.8373 61.9737 50.6599 60.4763C48.6109 61.5599 46.5552 62.3721 44.2609 62.3612C41.9886 62.3502 39.9461 61.5731 37.8992 60.4544C37.724 62.0525 37.492 63.5346 37.4132 65.0276C37.3103 66.976 38.4093 68.3004 40.0314 69.1301C40.9553 69.603 42.0389 69.7716 43.0569 70.0496C43.3962 70.1416 43.7684 70.1043 44.1077 70.1963C44.7557 70.3736 45.0337 70.8465 44.9659 71.4988C44.9002 72.125 44.5171 72.5212 43.8954 72.5365C39.6505 72.646 35.6968 70.0168 35.0729 66.4418C35.051 66.3127 34.9897 66.1879 34.9219 65.9909C34.2082 66.2032 33.5208 66.409 32.6429 66.6695C33.1049 69.2549 33.4113 71.836 34.0571 74.3295C34.6395 76.5843 35.5677 78.756 36.393 80.9452C36.7367 81.8515 36.6491 82.5105 35.9661 82.8607C35.2634 83.2219 34.6132 82.9198 34.1535 81.996C32.262 78.189 31.2944 74.1149 30.6924 69.9402C30.5107 68.6726 30.3837 67.3941 30.2655 66.1178C30.2129 65.5552 30.0137 65.3188 29.4292 65.5005C27.6866 66.0456 25.8981 66.4747 24.2014 67.1336C20.3112 68.642 18.225 71.6105 17.5813 75.6824C17.2705 77.6483 16.9005 79.6054 16.5546 81.5669C16.5218 81.7552 16.4845 81.9456 16.4211 82.1252C16.1868 82.7819 15.7052 83.1015 15.0244 82.9702C14.3413 82.8366 13.9385 82.3331 14.0589 81.661C14.615 78.6049 14.9806 75.4832 15.8825 72.5278C17.1369 68.423 20.1252 65.8201 24.2102 64.5153C25.7426 64.0272 27.2926 63.5981 28.8316 63.1318C30.005 62.7749 31.0339 62.9851 31.9249 63.8498C32.065 63.9856 32.3036 64.1651 32.4481 64.1301C33.2669 63.9265 34.0769 63.6813 34.8737 63.3989C35.0073 63.3507 35.0992 63.0573 35.1255 62.8647C35.2853 61.7022 35.4495 60.5398 35.5458 59.3708C35.5677 59.1059 35.4101 58.7315 35.2065 58.5542C32.7174 56.3847 30.5588 53.9438 28.8622 51.1022C28.7527 50.9183 28.4419 50.7213 28.2427 50.741C25.5487 50.9963 19.6337 50.4587 17.4018 51.921C17.4018 52.1421 17.4018 52.431 17.4018 52.72C17.4018 55.069 17.4084 57.418 17.3974 59.767C17.3931 60.7696 16.8611 61.3257 15.9373 61.1856C12.4302 60.6492 8.93404 60.056 5.62181 58.7074C5.14456 58.5126 4.68702 58.2608 4.23605 58.0069C2.91159 57.2648 2.25921 56.2161 2.29862 54.6093C2.38619 51.0343 2.32489 47.455 2.32708 43.8779C2.32708 43.659 2.31613 43.4401 2.33365 43.2233C2.39275 42.5053 2.87 42.0324 3.53113 42.0193C4.22948 42.0061 4.72424 42.4899 4.77897 43.254C4.79429 43.4707 4.78335 43.6918 4.78335 43.9085C4.78335 47.4047 4.82494 50.9008 4.75489 54.3947C4.73737 55.2945 5.07451 55.7739 5.80789 56.1001C6.35518 56.3453 6.89372 56.6343 7.46729 56.7875C9.91042 57.4421 12.3667 58.0529 14.904 58.7009V16.4824C11.5348 15.6221 8.17659 14.7661 4.78335 13.9014V14.5997C4.78335 21.9182 4.78335 29.2388 4.78335 36.5572C4.78335 36.8309 4.80962 37.1111 4.75489 37.3738C4.61916 38.0131 4.18789 38.3896 3.54208 38.383C2.89846 38.3743 2.47594 37.9912 2.35335 37.3475C2.30738 37.1089 2.32927 36.8572 2.32927 36.612C2.32927 28.1179 2.34459 19.6261 2.31176 11.132C2.30738 9.80977 2.83278 8.87936 3.89235 8.19415C5.89983 6.89377 8.18315 6.32896 10.473 5.81888C15.7862 4.63672 21.1847 4.07629 26.603 3.65596C34.5081 3.04299 42.4264 2.82407 50.3425 3.11085C56.5576 3.33634 62.7618 3.89896 68.9681 4.33023C69.9861 4.40029 70.4655 4.94539 70.3582 5.75539C70.2575 6.50409 69.6533 6.88063 68.6857 6.7668C56.9385 5.39418 45.1519 5.22561 33.3522 5.70723C26.2593 5.99839 19.1794 6.54131 12.2069 7.96866C10.2651 8.36709 8.36923 9.00196 6.47559 9.5996C5.88013 9.78787 5.3591 10.2104 4.80305 10.5234C4.80086 10.6329 4.79648 10.7424 4.79429 10.8518C5.80132 11.2984 6.77113 11.8917 7.82413 12.161C10.4884 12.8418 13.1854 13.4 15.8781 13.9648C17.161 14.2341 17.404 14.4727 17.404 15.8169C17.404 26.6315 17.404 37.4461 17.404 48.2606C17.404 48.5824 17.404 48.9043 17.404 49.2764C20.4448 48.9634 23.3958 48.6591 26.3906 48.3504C26.2067 47.7834 26.0272 47.223 25.8258 46.5969C25.1078 46.5969 24.3744 46.6034 23.641 46.5969C21.5963 46.5772 20.4579 45.441 20.4404 43.3831C20.4273 41.8266 20.4317 40.2701 20.4404 38.7136C20.4514 36.52 21.5131 35.4539 23.6979 35.4189C23.9343 35.4145 24.1686 35.3882 24.2321 35.3838C24.0307 33.2822 23.6301 31.2266 23.6826 29.1863C23.7833 25.307 25.2916 21.9641 28.304 19.4291C30.3509 17.7062 32.7108 17.1195 35.3531 17.8069C35.6246 17.8769 36.0515 17.7653 36.2682 17.577C40.003 14.3589 44.3376 12.9775 49.2216 13.3781C52.7397 13.6671 55.8855 14.9675 58.6351 17.1939C59.3773 17.7937 59.5042 18.5074 59.0029 19.1029C58.5169 19.6786 57.8558 19.7005 57.1224 19.1182C54.1079 16.7342 50.6928 15.5958 46.8486 15.7928C43.2452 15.9789 40.1081 17.3034 37.5183 19.8187C36.7564 20.5587 36.0975 20.7929 35.0598 20.3551C33.026 19.4947 31.174 20.0858 29.6284 21.5241C26.8328 24.127 25.8368 27.424 26.152 31.1697C26.1892 31.6053 26.2505 32.0388 26.3162 32.47C26.3578 32.7349 26.43 32.9976 26.5088 33.3457C26.6468 33.245 26.7606 33.1925 26.8306 33.1071C27.8399 31.8833 29.1424 31.3623 30.7164 31.3536C31.1652 31.3514 31.6797 31.1675 32.0497 30.907C33.4595 29.9109 34.2476 28.4397 34.9044 26.892C35.0007 26.6665 35.0707 26.4301 35.1671 26.2046C35.8348 24.6524 37.4986 24.3569 38.6895 25.5632C39.7622 26.6512 40.8042 27.7742 41.947 28.7834C42.676 29.4271 43.5363 29.935 44.3857 30.4188C45.5854 31.1018 46.8705 31.4345 48.2934 31.3995C51.1328 31.3273 53.9744 31.4302 56.8137 31.3601C58.8716 31.3098 60.7433 31.5703 62.0634 33.5887C62.8121 30.3531 62.4728 27.413 61.2512 24.5561C61.1024 24.2059 60.9163 23.8709 60.7499 23.5272C60.3493 22.7063 60.4916 22.0495 61.1505 21.6861C61.8095 21.3227 62.4837 21.5613 62.9084 22.3538C63.8848 24.173 64.4978 26.1104 64.7802 28.1595C65.1129 30.5786 64.8437 32.9407 64.1388 35.4232C64.5854 35.4232 64.9531 35.4101 65.3187 35.4254C66.8709 35.4955 68.0311 36.5507 68.0902 38.1028C68.1603 40.0118 68.1625 41.9273 68.0968 43.8363C68.0421 45.4453 66.8512 46.5268 65.2049 46.5881C64.3883 46.6187 63.5718 46.5925 62.7442 46.5925C62.5472 47.1967 62.3633 47.7549 62.1707 48.3438C65.2049 48.6591 68.2063 48.9699 71.3237 49.2939C71.3237 48.9721 71.3237 48.6591 71.3237 48.3438C71.3237 37.5008 71.3237 26.6599 71.3237 15.8169C71.3237 14.4268 71.536 14.2188 72.9021 13.9211C75.6692 13.3147 78.4385 12.7148 81.1794 12.0099C82.0748 11.78 82.8891 11.2349 83.7407 10.8343C83.7407 10.7424 83.7407 10.6504 83.7429 10.5585C83.3226 10.2936 82.9351 9.91922 82.4776 9.77912C80.1614 9.07858 77.8277 8.43496 75.4963 7.78039C75.181 7.69282 74.8417 7.68407 74.5374 7.5768C73.8916 7.34693 73.5523 6.8675 73.6924 6.18228C73.8303 5.50583 74.3272 5.08112 74.9971 5.20372C78.0532 5.76634 81.1181 6.32677 83.9334 7.74317C84.9623 8.25982 85.7679 8.99977 86.232 10.0747V55.9578H86.2342ZM28.339 40.9597C28.339 42.6257 28.3193 44.2916 28.3456 45.9554C28.3675 47.3521 29.149 48.1183 30.5523 48.1293C32.9823 48.1446 35.4123 48.1227 37.8423 48.1402C38.9062 48.1468 39.6527 47.6893 40.1847 46.7808C40.4583 46.3145 40.7714 45.8482 41.1567 45.476C43.2955 43.4138 46.68 43.9063 48.2321 46.5268C48.8976 47.652 49.7821 48.184 51.1065 48.1512C53.3702 48.0965 55.6381 48.1446 57.904 48.1337C59.4539 48.1271 60.2179 47.374 60.2245 45.8219C60.2376 42.5994 60.2398 39.3791 60.2245 36.1566C60.2179 34.6198 59.4254 33.8405 57.893 33.8405C48.8298 33.8361 39.7644 33.8361 30.7011 33.8405C29.1205 33.8405 28.3543 34.6133 28.3412 36.2114C28.328 37.7941 28.339 39.3791 28.3412 40.9619L28.339 40.9597ZM73.8106 58.517C74.6841 58.3594 75.4788 58.2805 76.234 58.066C78.4035 57.4465 80.562 56.7963 82.7096 56.1067C83.5065 55.8506 83.8042 55.277 83.7998 54.3575C83.7626 41.1195 83.7758 27.8815 83.7758 14.6435C83.7758 14.3326 83.7758 14.0218 83.7758 13.897C80.4263 14.7595 77.1425 15.6045 73.8106 16.4627V58.5192V58.517ZM31.4192 50.5899C33.7244 53.9219 36.2463 56.7043 39.6418 58.5958C42.757 60.3318 45.8612 60.3603 48.9699 58.5651C52.2493 56.6693 54.8128 54.0357 56.9101 50.9161C56.9604 50.8417 56.9517 50.7279 56.9779 50.5899C54.931 50.5899 52.9389 50.5724 50.9489 50.5943C48.7904 50.6184 47.1857 49.758 46.1436 47.8206C45.3205 46.2926 43.3262 46.2094 42.4921 47.7177C41.3055 49.8653 39.5235 50.6841 37.1548 50.6031C35.3116 50.5396 33.4639 50.5899 31.4192 50.5899ZM25.8389 37.8795C25.0114 37.8795 24.2781 37.8883 23.5469 37.8751C23.1003 37.8686 22.8989 38.07 22.9011 38.51C22.9054 40.1716 22.8857 41.8332 22.9251 43.4948C22.9295 43.7093 23.2185 44.0815 23.398 44.0968C24.1971 44.1625 25.0027 44.1253 25.8389 44.1253V37.8773V37.8795ZM62.7267 44.1362C63.5499 44.1362 64.2876 44.1888 65.0101 44.1056C65.2487 44.0793 65.6274 43.7093 65.634 43.4882C65.6865 41.8288 65.68 40.165 65.6427 38.5056C65.6384 38.2955 65.3516 37.9299 65.1742 37.9145C64.3752 37.8489 63.5674 37.8861 62.7267 37.8861V44.1362ZM41.0231 31.3557C39.7271 30.1188 38.5034 28.9498 37.2906 27.7917C36.6251 28.9914 35.9771 30.1561 35.3116 31.3557H41.0253H41.0231Z" fill="#C5C5C5"/>
<path d="M44.3048 55.6381C42.9234 55.6119 41.6559 55.185 40.5372 54.3334C39.8717 53.8255 39.7294 53.1534 40.1409 52.5623C40.5569 51.9647 41.2312 51.8552 41.9317 52.3368C43.5561 53.4533 45.1586 53.4599 46.7851 52.3412C47.4857 51.8596 48.1599 51.9625 48.5781 52.5558C48.994 53.1425 48.8583 53.8321 48.1971 54.3334C47.0544 55.1981 45.7606 55.6294 44.3026 55.6381H44.3048Z" fill="#553EFF"/>
</svg>
