<svg width="698" height="1059" viewBox="0 0 698 1059" fill="none" xmlns="http://www.w3.org/2000/svg">
<g clip-path="url(#clip0_124_842)">
<circle cx="4.08187" cy="14.2866" r="4.08187" fill="#553EFF"/>
<circle cx="53.0643" cy="14.2866" r="4.08187" fill="#553EFF"/>
<circle cx="104.088" cy="14.2866" r="6.12281" fill="#553EFF"/>
<circle cx="159.193" cy="14.2865" r="8.16374" fill="#553EFF"/>
<circle cx="218.38" cy="14.2866" r="10.2047" fill="#553EFF"/>
<circle cx="281.65" cy="14.2866" r="12.2456" fill="#553EFF"/>
<circle cx="348.999" cy="14.2866" r="14.2866" fill="#553EFF"/>
<circle cx="416.351" cy="14.2866" r="12.2456" fill="#553EFF"/>
<circle cx="479.621" cy="14.2866" r="10.2047" fill="#553EFF"/>
<circle cx="538.806" cy="14.2865" r="8.16374" fill="#553EFF"/>
<circle cx="593.912" cy="14.2866" r="6.12281" fill="#553EFF"/>
<circle cx="644.935" cy="14.2866" r="4.08187" fill="#553EFF"/>
<circle cx="693.918" cy="14.2866" r="4.08187" fill="#553EFF"/>
<circle cx="4.08187" cy="153.07" r="4.08187" fill="#553EFF"/>
<circle cx="53.0643" cy="153.07" r="4.08187" fill="#553EFF"/>
<circle cx="104.088" cy="153.07" r="6.12281" fill="#553EFF"/>
<circle cx="159.193" cy="153.07" r="8.16374" fill="#553EFF"/>
<circle cx="218.38" cy="153.07" r="10.2047" fill="#553EFF"/>
<circle cx="281.65" cy="153.07" r="12.2456" fill="#553EFF"/>
<circle cx="348.999" cy="153.07" r="14.2866" fill="#553EFF"/>
<circle cx="416.351" cy="153.07" r="12.2456" fill="#553EFF"/>
<circle cx="479.621" cy="153.07" r="10.2047" fill="#553EFF"/>
<circle cx="538.806" cy="153.07" r="8.16374" fill="#553EFF"/>
<circle cx="593.912" cy="153.07" r="6.12281" fill="#553EFF"/>
<circle cx="644.935" cy="153.07" r="4.08187" fill="#553EFF"/>
<circle cx="693.918" cy="153.07" r="4.08187" fill="#553EFF"/>
<circle cx="4.08187" cy="291.854" r="4.08187" fill="#553EFF"/>
<circle cx="53.0643" cy="291.854" r="4.08187" fill="#553EFF"/>
<circle cx="104.088" cy="291.854" r="6.12281" fill="#553EFF"/>
<circle cx="159.193" cy="291.854" r="8.16374" fill="#553EFF"/>
<circle cx="218.38" cy="291.854" r="10.2047" fill="#553EFF"/>
<circle cx="281.65" cy="291.854" r="12.2456" fill="#553EFF"/>
<circle cx="348.999" cy="291.854" r="14.2866" fill="#553EFF"/>
<circle cx="416.351" cy="291.854" r="12.2456" fill="#553EFF"/>
<circle cx="479.621" cy="291.854" r="10.2047" fill="#553EFF"/>
<circle cx="538.806" cy="291.854" r="8.16374" fill="#553EFF"/>
<circle cx="593.912" cy="291.854" r="6.12281" fill="#553EFF"/>
<circle cx="644.935" cy="291.854" r="4.08187" fill="#553EFF"/>
<circle cx="693.918" cy="291.854" r="4.08187" fill="#553EFF"/>
<circle cx="4.08187" cy="430.638" r="4.08187" fill="#553EFF"/>
<circle cx="53.0643" cy="430.638" r="4.08187" fill="#553EFF"/>
<circle cx="104.088" cy="430.637" r="6.12281" fill="#553EFF"/>
<circle cx="159.193" cy="430.637" r="8.16374" fill="#553EFF"/>
<circle cx="218.38" cy="430.638" r="10.2047" fill="#553EFF"/>
<circle cx="281.65" cy="430.637" r="12.2456" fill="#553EFF"/>
<circle cx="348.999" cy="430.637" r="14.2866" fill="#553EFF"/>
<circle cx="416.351" cy="430.637" r="12.2456" fill="#553EFF"/>
<circle cx="479.621" cy="430.638" r="10.2047" fill="#553EFF"/>
<circle cx="538.806" cy="430.637" r="8.16374" fill="#553EFF"/>
<circle cx="593.912" cy="430.637" r="6.12281" fill="#553EFF"/>
<circle cx="644.935" cy="430.638" r="4.08187" fill="#553EFF"/>
<circle cx="693.918" cy="430.638" r="4.08187" fill="#553EFF"/>
<circle cx="4.08187" cy="569.421" r="4.08187" fill="#553EFF"/>
<circle cx="53.0643" cy="569.421" r="4.08187" fill="#553EFF"/>
<circle cx="104.088" cy="569.421" r="6.12281" fill="#553EFF"/>
<circle cx="159.193" cy="569.421" r="8.16374" fill="#553EFF"/>
<circle cx="218.38" cy="569.421" r="10.2047" fill="#553EFF"/>
<circle cx="281.65" cy="569.421" r="12.2456" fill="#553EFF"/>
<circle cx="348.999" cy="569.421" r="14.2866" fill="#553EFF"/>
<circle cx="416.351" cy="569.421" r="12.2456" fill="#553EFF"/>
<circle cx="479.621" cy="569.421" r="10.2047" fill="#553EFF"/>
<circle cx="538.806" cy="569.421" r="8.16374" fill="#553EFF"/>
<circle cx="593.912" cy="569.421" r="6.12281" fill="#553EFF"/>
<circle cx="644.935" cy="569.421" r="4.08187" fill="#553EFF"/>
<circle cx="693.918" cy="569.421" r="4.08187" fill="#553EFF"/>
<circle cx="159.193" cy="708.205" r="8.16374" fill="#553EFF"/>
<circle cx="218.38" cy="708.205" r="10.2047" fill="#553EFF"/>
<circle cx="281.65" cy="708.205" r="12.2456" fill="#553EFF"/>
<circle cx="348.999" cy="708.205" r="14.2866" fill="#553EFF"/>
<circle cx="416.351" cy="708.205" r="12.2456" fill="#553EFF"/>
<circle cx="479.621" cy="708.205" r="10.2047" fill="#553EFF"/>
<circle cx="538.806" cy="708.205" r="8.16374" fill="#553EFF"/>
<circle cx="593.912" cy="708.205" r="6.12281" fill="#553EFF"/>
<circle cx="644.935" cy="708.205" r="4.08187" fill="#553EFF"/>
<circle cx="693.918" cy="708.205" r="4.08187" fill="#553EFF"/>
<circle cx="416.351" cy="846.988" r="12.2456" fill="#553EFF"/>
<circle cx="479.621" cy="846.988" r="10.2047" fill="#553EFF"/>
<circle cx="538.806" cy="846.988" r="8.16374" fill="#553EFF"/>
<circle cx="593.912" cy="846.989" r="6.12281" fill="#553EFF"/>
<circle cx="644.935" cy="846.988" r="4.08187" fill="#553EFF"/>
<circle cx="693.918" cy="846.988" r="4.08187" fill="#553EFF"/>
<circle cx="644.935" cy="985.772" r="4.08187" fill="#553EFF"/>
<circle cx="693.918" cy="985.772" r="4.08187" fill="#553EFF"/>
<circle cx="4.08187" cy="83.6784" r="4.08187" fill="#553EFF"/>
<circle cx="53.0643" cy="83.6784" r="4.08187" fill="#553EFF"/>
<circle cx="104.088" cy="83.6784" r="6.12281" fill="#553EFF"/>
<circle cx="159.193" cy="83.6784" r="8.16374" fill="#553EFF"/>
<circle cx="218.38" cy="83.6783" r="10.2047" fill="#553EFF"/>
<circle cx="281.65" cy="83.6785" r="12.2456" fill="#553EFF"/>
<circle cx="348.999" cy="83.6784" r="14.2866" fill="#553EFF"/>
<circle cx="416.351" cy="83.6785" r="12.2456" fill="#553EFF"/>
<circle cx="479.621" cy="83.6783" r="10.2047" fill="#553EFF"/>
<circle cx="538.806" cy="83.6784" r="8.16374" fill="#553EFF"/>
<circle cx="593.912" cy="83.6784" r="6.12281" fill="#553EFF"/>
<circle cx="644.935" cy="83.6784" r="4.08187" fill="#553EFF"/>
<circle cx="693.918" cy="83.6784" r="4.08187" fill="#553EFF"/>
<circle cx="4.08187" cy="222.462" r="4.08187" fill="#553EFF"/>
<circle cx="53.0643" cy="222.462" r="4.08187" fill="#553EFF"/>
<circle cx="104.088" cy="222.462" r="6.12281" fill="#553EFF"/>
<circle cx="159.193" cy="222.462" r="8.16374" fill="#553EFF"/>
<circle cx="218.38" cy="222.462" r="10.2047" fill="#553EFF"/>
<circle cx="281.65" cy="222.462" r="12.2456" fill="#553EFF"/>
<circle cx="348.999" cy="222.462" r="14.2866" fill="#553EFF"/>
<circle cx="416.351" cy="222.462" r="12.2456" fill="#553EFF"/>
<circle cx="479.621" cy="222.462" r="10.2047" fill="#553EFF"/>
<circle cx="538.806" cy="222.462" r="8.16374" fill="#553EFF"/>
<circle cx="593.912" cy="222.462" r="6.12281" fill="#553EFF"/>
<circle cx="644.935" cy="222.462" r="4.08187" fill="#553EFF"/>
<circle cx="693.918" cy="222.462" r="4.08187" fill="#553EFF"/>
<circle cx="4.08187" cy="361.246" r="4.08187" fill="#553EFF"/>
<circle cx="53.0643" cy="361.246" r="4.08187" fill="#553EFF"/>
<circle cx="104.088" cy="361.246" r="6.12281" fill="#553EFF"/>
<circle cx="159.193" cy="361.246" r="8.16374" fill="#553EFF"/>
<circle cx="218.38" cy="361.246" r="10.2047" fill="#553EFF"/>
<circle cx="281.65" cy="361.246" r="12.2456" fill="#553EFF"/>
<circle cx="348.999" cy="361.246" r="14.2866" fill="#553EFF"/>
<circle cx="416.351" cy="361.246" r="12.2456" fill="#553EFF"/>
<circle cx="479.621" cy="361.246" r="10.2047" fill="#553EFF"/>
<circle cx="538.806" cy="361.246" r="8.16374" fill="#553EFF"/>
<circle cx="593.912" cy="361.246" r="6.12281" fill="#553EFF"/>
<circle cx="644.935" cy="361.246" r="4.08187" fill="#553EFF"/>
<circle cx="693.918" cy="361.246" r="4.08187" fill="#553EFF"/>
<circle cx="4.08187" cy="500.029" r="4.08187" fill="#553EFF"/>
<circle cx="53.0643" cy="500.029" r="4.08187" fill="#553EFF"/>
<circle cx="104.088" cy="500.029" r="6.12281" fill="#553EFF"/>
<circle cx="159.193" cy="500.029" r="8.16374" fill="#553EFF"/>
<circle cx="218.38" cy="500.029" r="10.2047" fill="#553EFF"/>
<circle cx="281.65" cy="500.029" r="12.2456" fill="#553EFF"/>
<circle cx="348.999" cy="500.029" r="14.2866" fill="#553EFF"/>
<circle cx="416.351" cy="500.029" r="12.2456" fill="#553EFF"/>
<circle cx="479.621" cy="500.029" r="10.2047" fill="#553EFF"/>
<circle cx="538.806" cy="500.029" r="8.16374" fill="#553EFF"/>
<circle cx="593.912" cy="500.029" r="6.12281" fill="#553EFF"/>
<circle cx="644.935" cy="500.029" r="4.08187" fill="#553EFF"/>
<circle cx="693.918" cy="500.029" r="4.08187" fill="#553EFF"/>
<circle cx="53.0643" cy="638.813" r="4.08187" fill="#553EFF"/>
<circle cx="104.088" cy="638.813" r="6.12281" fill="#553EFF"/>
<circle cx="159.193" cy="638.813" r="8.16374" fill="#553EFF"/>
<circle cx="218.38" cy="638.813" r="10.2047" fill="#553EFF"/>
<circle cx="281.65" cy="638.813" r="12.2456" fill="#553EFF"/>
<circle cx="348.999" cy="638.813" r="14.2866" fill="#553EFF"/>
<circle cx="416.351" cy="638.813" r="12.2456" fill="#553EFF"/>
<circle cx="479.621" cy="638.813" r="10.2047" fill="#553EFF"/>
<circle cx="538.806" cy="638.813" r="8.16374" fill="#553EFF"/>
<circle cx="593.912" cy="638.813" r="6.12281" fill="#553EFF"/>
<circle cx="644.935" cy="638.813" r="4.08187" fill="#553EFF"/>
<circle cx="693.918" cy="638.813" r="4.08187" fill="#553EFF"/>
<circle cx="281.65" cy="777.596" r="12.2456" fill="#553EFF"/>
<circle cx="348.999" cy="777.597" r="14.2866" fill="#553EFF"/>
<circle cx="416.351" cy="777.596" r="12.2456" fill="#553EFF"/>
<circle cx="479.621" cy="777.596" r="10.2047" fill="#553EFF"/>
<circle cx="538.806" cy="777.596" r="8.16374" fill="#553EFF"/>
<circle cx="593.912" cy="777.596" r="6.12281" fill="#553EFF"/>
<circle cx="644.935" cy="777.596" r="4.08187" fill="#553EFF"/>
<circle cx="693.918" cy="777.596" r="4.08187" fill="#553EFF"/>
<circle cx="538.806" cy="916.38" r="8.16374" fill="#553EFF"/>
<circle cx="593.912" cy="916.38" r="6.12281" fill="#553EFF"/>
<circle cx="644.935" cy="916.38" r="4.08187" fill="#553EFF"/>
<circle cx="693.918" cy="916.38" r="4.08187" fill="#553EFF"/>
<circle cx="693.918" cy="1055.16" r="4.08187" fill="#553EFF"/>
<rect width="698" height="1059" fill="url(#paint0_linear_124_842)"/>
</g>
<defs>
<linearGradient id="paint0_linear_124_842" x1="349" y1="0" x2="349" y2="1059" gradientUnits="userSpaceOnUse">
<stop stop-color="#04040A"/>
<stop offset="1" stop-color="#04040A" stop-opacity="0"/>
</linearGradient>
<clipPath id="clip0_124_842">
<rect width="698" height="1058.89" fill="white"/>
</clipPath>
</defs>
</svg>
