<svg width="1726" height="298" viewBox="0 0 1726 298" fill="none" xmlns="http://www.w3.org/2000/svg">
<path fill-rule="evenodd" clip-rule="evenodd" d="M1214.97 21L1215 42L1230 49.5C1238.25 53.625 1245.22 57.233 1245.5 57.517C1245.78 57.802 1251.62 60.831 1258.5 64.248L1271 70.461L1242.75 70.48L1214.5 70.5V184V297.5H1244.5H1274.5V149C1274.5 50.667 1274.16 0.5 1273.5 0.5C1272.85 0.5 1272.5 12.632 1272.5 34.895V69.291L1246.3 56.145C1231.89 48.915 1219.48 42.438 1218.73 41.75C1217.97 41.063 1216.95 40.5 1216.45 40.5C1215.94 40.5 1215.41 31.491 1215.24 20.25L1214.94 0L1214.97 21ZM31.25 70.249L62.5 70.528V154.014V237.5H122.5H182.5V266.5V295.5H129.126C72.151 295.5 73.83 295.627 62.754 290.47C56.706 287.655 55.382 286.472 31.491 262.543C8.327 239.341 5.277 235.144 2.034 222L0.554 216L0.959 221.787C1.24 225.806 2.452 229.778 4.929 234.79C8.097 241.203 11.143 244.641 32.247 265.633C66.367 299.571 59.881 297.5 132.062 297.5H183.5V266.5V235.5H123.5H63.5V152.5V69.5L31.75 69.735L0 69.97L31.25 70.249ZM277 70.133C269.81 71.205 256.489 74.75 250.5 77.186C245.015 79.418 232.467 86.142 229 88.708C223.497 92.781 212.097 103.53 208.5 108.037C206.025 111.139 203.53 114.199 202.956 114.838C200.529 117.538 194.244 128.847 191.581 135.303C177.288 169.965 179.927 213.498 198.162 243.83C204.648 254.62 212.087 263.046 223.522 272.556C241.698 287.671 264.303 295.4 295.5 297.166C310.892 298.037 336.608 294.216 347 289.514C348.1 289.016 351.25 287.627 354 286.427C362.247 282.829 372.554 275.671 380.361 268.12C386.862 261.833 395.5 251.526 395.5 250.057C395.5 249.767 392.913 248.169 389.75 246.507C386.587 244.844 383.325 243.06 382.5 242.541C375.755 238.298 353.259 225.558 351.561 225.019C349.861 224.48 348.091 225.589 342.9 230.445C333.751 239.003 324.925 242.946 310.972 244.708C300.657 246.011 284.48 244.723 276.5 241.963C262.221 237.025 252.463 228.754 246.25 216.322C244.188 212.194 242.5 208.296 242.5 207.659C242.5 206.79 262.678 206.5 323.117 206.5C399.448 206.5 403.702 206.407 403.154 204.75C402.371 202.386 397.944 190.371 397.166 188.5C395.984 185.656 386.18 159.986 383.99 154C382.783 150.7 381.263 146.65 380.612 145C379.961 143.35 377.158 135.925 374.383 128.5C371.608 121.075 368.699 113.582 367.918 111.849C367.138 110.116 366.5 108.272 366.5 107.753C366.5 107.233 365.879 105.501 365.12 103.904C364.361 102.307 362.554 97.85 361.105 94C358.591 87.323 358.182 86.835 352.235 83.411C333.948 72.886 324.406 70.487 299 70.029C288.55 69.84 278.65 69.887 277 70.133ZM676 70.128C671.332 70.832 656.335 74.444 653 75.667C647.432 77.711 637.032 82.859 632 86.063C627.259 89.082 626.826 89.733 623.644 98.624C621.798 103.781 619.717 109.35 619.018 111C617.748 113.999 613.797 124.368 608.54 138.5C607.005 142.625 603.606 151.625 600.985 158.5C598.364 165.375 595.596 172.8 594.833 175C594.07 177.2 593.04 179.9 592.545 181C591.679 182.922 588.846 190.212 584.701 201.184C582.562 206.846 582.732 208.538 586.739 221.5C588.85 228.331 595.468 242.764 596.75 243.333C597.163 243.517 597.5 244.097 597.5 244.624C597.5 245.557 599.962 249.276 604 254.441C608.129 259.724 621.201 272.36 626.554 276.244C635.45 282.699 649.951 289.413 662.5 292.889C669.618 294.86 690.48 297.5 698.944 297.5C710.014 297.5 730.467 294.454 739.5 291.461C756.29 285.896 766.546 279.966 778.344 269C784.201 263.556 793.5 252.329 793.5 250.701C793.5 250.143 786.638 245.709 778.25 240.849C757.327 228.726 757.224 228.667 755.25 227.925C754.288 227.563 753.5 226.905 753.5 226.463C753.5 226.021 752.212 225.376 750.639 225.031C748.145 224.483 747.05 225.113 742.108 229.937C729.576 242.173 711.349 247.237 689.139 244.656C678.708 243.443 669.836 240.667 662.718 236.389C658.159 233.648 649.509 225.065 647.21 221C645.143 217.347 641.5 208.679 641.5 207.417C641.5 206.869 673.823 206.5 721.928 206.5H802.356L803.021 201.178C803.387 198.252 803.5 194.764 803.273 193.428C803.045 192.093 802.495 194.262 802.05 198.25L801.242 205.5H720.371C643.529 205.5 639.5 205.589 639.5 207.278C639.5 209.991 645.989 222.936 649.174 226.579C654.332 232.476 658.577 235.965 664.59 239.249C675.002 244.936 685.591 246.828 703.5 246.202C722.406 245.541 732.273 241.804 743.271 231.138L748.543 226.026L753.271 228.489C755.872 229.843 758.225 231.187 758.5 231.476C759.027 232.028 760.934 233.137 768.421 237.241C770.94 238.621 777.174 242.22 782.277 245.239L791.553 250.726L789.597 253.816C786.184 259.205 772.394 272.4 765.066 277.287C750.935 286.712 739.59 290.95 719 294.497C710.077 296.034 681.761 295.263 671.5 293.202C658.659 290.625 653.493 288.929 642.5 283.682C638.314 281.684 628.534 275.558 626.679 273.772C625.952 273.073 625.005 272.5 624.575 272.5C621.808 272.5 598.5 245.868 598.5 242.706C598.5 242.135 598.163 241.517 597.75 241.333C596.96 240.982 594.097 235.367 590.443 227C589.242 224.25 587.463 218.519 586.491 214.265C584.676 206.322 584.916 204.054 588.426 196C590.247 191.821 599.5 167.533 599.5 166.932C599.5 166.586 600.119 164.884 600.876 163.151C601.633 161.418 603.692 156.175 605.451 151.5C607.211 146.825 611.78 134.675 615.605 124.5C628.356 90.578 628.302 90.688 634.216 86.905C641.99 81.932 648.148 79.068 656.5 76.539C660.625 75.291 665.016 73.879 666.257 73.403C667.499 72.926 674.589 71.988 682.014 71.317C692.641 70.357 698.011 70.358 707.256 71.32C718.328 72.473 730.467 75.133 732.098 76.765C732.503 77.169 733.596 77.5 734.529 77.5C737.42 77.5 751.649 85.342 759.079 91.031C762.973 94.011 768.823 99.261 772.079 102.697C778.325 109.286 788.482 123.191 788.493 125.167C788.497 125.808 788.85 126.483 789.278 126.667C790.344 127.124 794.975 137.8 797.013 144.5C797.933 147.525 799.077 151.125 799.556 152.5C800.511 155.24 803.277 175.76 803.87 184.5C804.075 187.525 804.058 184.253 803.833 177.229C803.151 155.94 800.953 146.497 792.724 129.5C787.225 118.142 781.282 109.807 771.839 100.21C758.387 86.539 743.958 77.956 725.857 72.86C718.137 70.686 714.562 70.322 698 70.021C687.55 69.831 677.65 69.879 676 70.128ZM824.5 183.5V297.5H854H883.5V183.5V69.5H854H824.5V183.5ZM1020 70.173C1017.31 70.767 1007.25 74.726 1006 75.683C998.094 81.737 989.892 89.393 974.475 105.112C959.914 119.958 955.248 125.379 952.671 130.442C946.538 142.492 946.5 143.062 946.5 224.065V297.5H978.5H1010.5V270.5V243.5H1102.5H1194.5V213V182.5H1102.5H1010.5V156.5V130.5H1102.5H1194.5V100V69.5L1108.25 69.616C1060.81 69.68 1021.1 69.931 1020 70.173ZM1598 70.132C1580.31 72.774 1565.55 78.217 1552 87.097C1547.55 90.012 1546.74 91.129 1544.61 97.187C1542.28 103.846 1533.11 128.029 1531.4 132C1530.93 133.1 1528.56 139.4 1526.12 146C1521.81 157.721 1520.64 160.712 1517.86 167.151C1517.11 168.884 1516.5 170.803 1516.5 171.415C1516.5 172.027 1516.05 173.309 1515.51 174.264C1513.23 178.255 1504.5 203.368 1504.5 205.92C1504.5 210.937 1509.22 225.744 1514.21 236.404C1516.92 242.201 1523.51 252.493 1526.37 255.393C1527.27 256.306 1529.29 258.616 1530.86 260.527C1533.18 263.336 1543.34 272.708 1548.01 276.346C1549.85 277.777 1562.94 285.131 1566.5 286.736C1576.58 291.275 1592.66 295.5 1599.85 295.5C1604.5 295.5 1602.67 294.77 1593.99 293.154C1585.37 291.552 1576.21 289.132 1573 287.609C1571.9 287.087 1568.49 285.558 1565.42 284.213C1555.98 280.073 1545.42 272.478 1535.96 263.031C1520.23 247.311 1510.71 229.572 1506.05 207.302C1505.53 204.785 1507.28 199.01 1511.05 190.849C1511.85 189.116 1512.5 187.053 1512.5 186.266C1512.5 185.478 1512.81 184.525 1513.19 184.148C1513.56 183.771 1514.4 182.009 1515.05 180.231C1519.91 166.866 1527.95 145.468 1529.04 143C1529.77 141.35 1534.31 129.461 1539.14 116.58C1543.96 103.698 1548.83 92.197 1549.96 91.022C1552.03 88.854 1555.38 86.703 1563.5 82.318C1580.16 73.326 1605.37 69.078 1628.92 71.297C1635.75 71.94 1642.38 72.883 1643.67 73.392C1644.95 73.9 1649.15 75.309 1653 76.522C1662.13 79.398 1672.44 84.799 1680.37 90.866C1687.84 96.584 1698.32 107.158 1702.23 112.929C1703.75 115.168 1705.24 117.225 1705.55 117.5C1706.33 118.204 1709.88 124.165 1712.76 129.611C1714.86 133.588 1716.52 138.247 1721.46 154C1724.27 162.967 1725.16 194.043 1722.86 203.193L1722.28 205.5H1641.39C1596.9 205.5 1560.5 205.761 1560.5 206.079C1560.5 207.533 1565.9 220.037 1566.65 220.333C1567.12 220.517 1567.5 221.32 1567.5 222.118C1567.5 224.723 1580.72 236.914 1586.5 239.634C1598.21 245.148 1602.72 245.979 1621 245.99C1634.83 245.998 1638.93 245.666 1643 244.21C1653.73 240.367 1660.87 236.039 1666.28 230.097C1668.08 228.119 1670.02 226.5 1670.59 226.5C1671.16 226.5 1676.43 229.351 1682.31 232.836C1692.66 238.97 1697.25 241.599 1707.25 247.124C1709.86 248.566 1712.34 250.053 1712.75 250.427C1714.37 251.887 1698.59 268.829 1689.7 275.172C1669.85 289.342 1653.1 294.338 1622 295.37C1607.4 295.854 1604.27 296.172 1608.5 296.741C1624.83 298.942 1652.36 295.451 1668 289.199C1675.14 286.342 1686.43 279.999 1691.74 275.86C1697.79 271.139 1708.31 260.67 1711.2 256.483C1712.15 255.117 1713.5 253.405 1714.21 252.679C1716.08 250.759 1715.83 250.007 1712.75 248.419C1711.24 247.639 1709.41 246.438 1708.68 245.752C1707.95 245.065 1706.27 244.229 1704.93 243.893C1703.59 243.558 1702.5 242.882 1702.5 242.392C1702.5 241.901 1702.07 241.5 1701.55 241.5C1701.02 241.5 1694.07 237.675 1686.09 233C1678.11 228.325 1671.07 224.5 1670.45 224.5C1669.83 224.5 1667.02 226.75 1664.21 229.5C1661.4 232.25 1658.78 234.5 1658.37 234.5C1657.97 234.5 1657.03 235.063 1656.28 235.75C1651.95 239.733 1641.84 243.3 1630.91 244.7C1609.35 247.462 1587.02 241.286 1575.34 229.332C1570.37 224.253 1565.01 215.285 1563.04 208.75L1562.36 206.5H1643.34H1724.32L1725.04 197.833C1726.8 176.751 1724.32 154.696 1718.39 138.571C1716.47 133.357 1708.32 117.424 1706.39 115.114C1705.88 114.501 1704.57 112.875 1703.47 111.5C1697.15 103.583 1690.45 96.421 1686.57 93.421C1684.14 91.54 1681.66 89.549 1681.07 88.998C1678.79 86.871 1671.7 82.722 1665 79.593C1654.83 74.848 1654.74 74.812 1646 72.41C1639.34 70.58 1634.9 70.168 1619.5 69.948C1609.32 69.803 1599.65 69.886 1598 70.132ZM322.647 73.381C340.077 77.708 357.599 86.606 358.785 91.733C359.22 93.617 368.036 117.475 370.154 122.5C370.802 124.039 371.647 126.264 380.41 149.5C383.211 156.925 385.907 163.9 386.403 165C387.697 167.872 401.5 204.472 401.5 205.032C401.5 205.289 365.275 205.5 321 205.5C276.725 205.5 240.5 205.838 240.501 206.25C240.503 207.922 244.194 216.335 247.193 221.5C253.497 232.359 262.71 239.26 276.908 243.755C283.114 245.72 286.123 245.998 301 245.983C314.639 245.969 318.988 245.617 323 244.204C329.097 242.056 334.883 239.263 335.333 238.25C335.517 237.837 336.294 237.5 337.061 237.5C337.828 237.5 340.97 235.025 344.044 232C347.118 228.975 350.025 226.5 350.504 226.5C350.984 226.5 356.769 229.65 363.361 233.5C369.953 237.35 375.831 240.5 376.423 240.5C377.015 240.5 377.5 240.838 377.5 241.252C377.5 241.665 380.875 243.787 385 245.967C389.125 248.146 392.5 250.353 392.5 250.871C392.5 252.495 387.436 258.746 380.57 265.6C360.5 285.633 334.304 295.5 301.19 295.5C259.593 295.5 231.23 282.669 205.974 252.426C197.66 242.469 189.596 224.264 185.853 207C183.417 195.763 183.456 170.006 185.925 159C189.926 141.166 196.12 127.108 205.408 114.783C211.399 106.832 223.044 95.11 228.231 91.808C229.754 90.839 231.225 89.787 231.5 89.47C232.186 88.681 238.069 85.169 243.5 82.308C252.765 77.428 267.667 72.965 279.5 71.526C290.77 70.156 313.612 71.138 322.647 73.381ZM376.939 79.737C378.788 84.831 381.96 93.275 383.987 98.5C386.015 103.725 388.781 111.15 390.135 115C391.489 118.85 393.019 122.9 393.534 124C394.859 126.827 403.207 148.648 406.158 157C407.518 160.85 409.217 165.35 409.933 167C410.649 168.65 413.565 176.3 416.413 184C419.261 191.7 422.021 198.781 422.546 199.736C423.071 200.691 423.5 201.954 423.5 202.541C423.5 203.129 424.344 205.498 425.375 207.805C426.406 210.112 429.569 218.3 432.404 226C435.24 233.7 437.947 240.9 438.422 242C440.189 246.101 447.482 265.307 450.573 274C452.333 278.95 454.161 283.427 454.636 283.95C455.111 284.472 455.5 285.514 455.5 286.265C455.5 287.015 456.455 289.85 457.623 292.565L459.746 297.5H493.546H527.345L528.492 293.75C529.123 291.688 530.052 289.1 530.556 288C531.658 285.594 539.604 264.772 543.149 255C544.546 251.15 546.09 247.1 546.58 246C547.687 243.517 556.263 221.084 557.667 217C558.234 215.35 559.328 212.582 560.099 210.849C560.869 209.116 561.5 207.068 561.5 206.299C561.5 205.529 561.879 204.473 562.342 203.95C562.805 203.428 564.901 198.275 566.998 192.5C569.096 186.725 571.642 180.112 572.656 177.805C573.67 175.498 574.5 173.186 574.5 172.669C574.5 172.152 575.172 170.44 575.994 168.864C576.815 167.289 577.49 165.303 577.494 164.45C577.497 163.598 577.879 162.473 578.342 161.95C578.805 161.428 580.901 156.275 582.998 150.5C585.096 144.725 587.642 138.112 588.656 135.805C589.67 133.498 590.5 130.937 590.5 130.114C590.5 129.291 590.95 128.34 591.5 128C592.05 127.66 592.5 126.709 592.5 125.886C592.5 125.063 593.344 122.502 594.376 120.195C595.407 117.888 597.713 111.95 599.5 107C601.287 102.05 603.593 96.112 604.624 93.805C605.656 91.498 606.5 88.937 606.5 88.114C606.5 87.291 606.95 86.34 607.5 86C608.05 85.66 608.515 84.621 608.534 83.691C608.553 82.761 609.437 80.2 610.5 78C614.38 69.968 616.559 70.498 579.75 70.513L547 70.525L544.296 78.763C542.809 83.293 539.16 93.975 536.187 102.5C533.214 111.025 529.786 120.925 528.569 124.5C527.353 128.075 525.96 131.9 525.475 133C524.989 134.1 524.043 137.025 523.371 139.5C522.699 141.975 521.825 144.45 521.429 145C521.032 145.55 520.254 147.575 519.699 149.5C519.144 151.425 516.601 158.85 514.047 166C511.493 173.15 507.89 183.5 506.042 189C504.193 194.5 500.806 204.4 498.515 211C496.224 217.6 494.127 223.675 493.854 224.5C493.337 226.065 492.166 223.119 485.503 203.5C483.355 197.175 479.527 186.15 476.997 179C474.466 171.85 470.866 161.5 468.996 156C467.126 150.5 462.617 137.45 458.976 127C455.335 116.55 451.753 106.2 451.017 104C450.28 101.8 447.402 93.475 444.621 85.5L439.564 71L406.57 70.737L373.577 70.473L376.939 79.737ZM882.5 183V295.5H854H825.5V183V70.5H854H882.5V183ZM1193.5 99.5V128.5H1101.5H1009.5V156V183.5H1101.5H1193.5V212.5V241.5H1101.5H1009.5V268.5V295.5H979H948.5L948.511 220.75C948.523 138.787 948.313 141.883 954.615 130.569C959.303 122.155 1001.66 79.857 1009.28 75.976C1019.7 70.669 1019.62 70.674 1109.75 70.584L1193.5 70.5V99.5ZM1294.5 71.201C1294.5 72.229 1303.42 96.288 1305.62 101.195C1306.65 103.502 1307.5 106.015 1307.5 106.778C1307.5 107.542 1307.81 108.475 1308.19 108.852C1308.56 109.229 1309.4 110.991 1310.04 112.769C1316.15 129.721 1320.93 142.167 1321.64 142.95C1322.11 143.472 1322.5 144.529 1322.5 145.299C1322.5 146.068 1323.14 148.116 1323.92 149.849C1324.7 151.582 1327.85 159.75 1330.92 168C1333.99 176.25 1336.95 183.781 1337.5 184.736C1338.05 185.691 1338.5 186.973 1338.5 187.585C1338.5 188.197 1339.14 190.116 1339.92 191.849C1340.7 193.582 1343.61 201.075 1346.38 208.5C1349.16 215.925 1351.96 223.35 1352.6 225C1353.25 226.65 1355.02 231.375 1356.54 235.5C1359.01 242.222 1367.6 264.684 1369.16 268.5C1369.7 269.833 1372.11 276.292 1377.38 290.5C1378.3 292.975 1379.4 295.563 1379.83 296.25C1380.44 297.209 1388.36 297.5 1413.9 297.5H1447.18L1448.44 294.75C1449.14 293.238 1451.64 286.825 1454 280.5C1458.26 269.108 1459.92 264.869 1461.64 261C1462.13 259.9 1462.94 257.65 1463.45 256C1463.95 254.35 1466.88 246.475 1469.96 238.5C1473.04 230.525 1476.49 221.3 1477.62 218C1478.76 214.7 1480.49 210.2 1481.47 208C1483.22 204.067 1487.54 192.753 1494.07 175C1497.71 165.112 1506.09 143.163 1507.44 140C1507.9 138.9 1509.72 134.175 1511.47 129.5C1524.8 93.929 1529.59 81.364 1531.41 77.167C1532.56 74.509 1533.5 71.921 1533.5 71.417C1533.5 70.88 1519.94 70.5 1500.74 70.5H1467.99L1466.82 73.25C1466.17 74.763 1465.19 77.575 1464.62 79.5C1463.55 83.138 1458.56 97.143 1456.78 101.5C1456.21 102.875 1455.42 105.575 1455.01 107.5C1454.6 109.425 1453.92 111.45 1453.49 112C1453.06 112.55 1452.24 114.575 1451.67 116.5C1451.1 118.425 1447.72 128.325 1444.16 138.5C1440.6 148.675 1437.16 158.575 1436.51 160.5C1435.86 162.425 1434.95 164.9 1434.48 166C1434.01 167.1 1432.5 171.375 1431.13 175.5C1429.77 179.625 1425.65 191.55 1421.99 202C1418.32 212.45 1415.09 221.787 1414.8 222.75C1413.85 225.866 1412.99 224.643 1410.55 216.75C1409.23 212.488 1407.85 208.55 1407.48 208C1407.11 207.45 1406.22 204.75 1405.5 202C1404.78 199.25 1403.88 196.55 1403.51 196C1403.14 195.45 1401.83 191.85 1400.6 188C1399.38 184.15 1398 180.1 1397.54 179C1396.13 175.61 1390.75 160.224 1389.5 156C1388.28 151.871 1382.93 136.535 1381.47 133C1381.02 131.9 1378.77 125.375 1376.48 118.5C1372.05 105.168 1368.21 94.197 1365.98 88.5C1365.23 86.575 1363.63 81.737 1362.42 77.75L1360.22 70.5H1327.36C1309.29 70.5 1294.5 70.816 1294.5 71.201ZM439.589 76.5C440.462 78.975 441.456 81.675 441.797 82.5C443.094 85.642 447.718 99.213 449.123 104C449.93 106.75 451.007 109.9 451.516 111C452.025 112.1 453.387 115.925 454.542 119.5C455.698 123.075 457.014 126.9 457.468 128C458.592 130.726 463.623 145.063 467.294 156C471.282 167.884 482.483 200.594 483.218 202.5C485.045 207.244 489.792 220.699 491.109 224.867C492.497 229.258 492.769 229.552 493.894 227.867C494.58 226.84 496.379 222.175 497.892 217.5C499.405 212.825 501.03 208.1 501.502 207C502.571 204.515 509.668 184.051 513.642 172C515.274 167.05 516.988 162.1 517.451 161C518.721 157.981 523.981 143.138 527.373 133C529.029 128.05 533.375 115.45 537.031 105C540.687 94.55 544.135 84.425 544.693 82.5C545.251 80.575 546.049 78.55 546.466 78C546.883 77.45 547.52 75.763 547.881 74.25L548.538 71.5H580.054C610.711 71.5 611.543 71.552 610.553 73.401C609.994 74.446 608.013 79.508 606.151 84.651C602.636 94.358 597.993 106.534 596.486 110C596.008 111.1 592.607 120.1 588.929 130C585.251 139.9 581.651 149.35 580.931 151C580.21 152.65 575.564 164.8 570.607 178C565.65 191.2 557.482 212.8 552.457 226C547.432 239.2 540.013 258.775 535.97 269.5C531.928 280.225 528.045 290.462 527.341 292.25L526.062 295.5H493.641C463.937 295.5 461.109 295.353 459.892 293.75C459.161 292.788 458.549 291.406 458.532 290.68C458.504 289.543 451.944 271.862 449.375 266C448.893 264.9 445.959 257.25 442.856 249C439.753 240.75 436.447 231.975 435.509 229.5C434.572 227.025 433.475 224.1 433.071 223C432.668 221.9 431.888 219.887 431.338 218.526C430.788 217.165 428.523 211.09 426.305 205.026C424.087 198.962 421.423 192.112 420.386 189.805C419.349 187.498 418.5 184.985 418.5 184.222C418.5 183.458 418.192 182.525 417.815 182.148C417.438 181.771 416.605 180.009 415.964 178.231C411.525 165.925 405.977 151.344 404.386 147.805C403.349 145.498 402.5 143.129 402.5 142.541C402.5 141.954 402.07 140.691 401.545 139.736C401.02 138.781 398.095 131.25 395.046 123C391.997 114.75 389.052 107.219 388.501 106.264C387.95 105.309 387.5 104.027 387.5 103.415C387.5 102.803 386.874 100.884 386.109 99.151C384.587 95.702 382.797 91.067 378.415 79.236L375.54 71.472L406.77 71.736L438 72L439.589 76.5ZM1272.5 183.5V295.5H1244H1215.5V183.5V71.5H1244H1272.5V183.5ZM1360.49 77.75C1361.72 81.188 1363.79 86.925 1365.09 90.5C1366.39 94.075 1368.79 101.05 1370.43 106C1372.07 110.95 1375.48 120.85 1378.01 128C1380.54 135.15 1384.13 145.5 1386 151C1387.87 156.5 1392.38 169.55 1396.02 180C1399.67 190.45 1403.24 200.8 1403.97 203C1407.9 214.847 1412.8 228.108 1413.52 228.87C1413.97 229.348 1414.8 228.223 1415.37 226.37C1417.33 219.977 1419.69 212.994 1420.56 211C1421.05 209.9 1422.39 206.075 1423.54 202.5C1424.7 198.925 1426.07 195.1 1426.59 194C1427.1 192.9 1427.94 190.65 1428.43 189C1428.93 187.35 1432.23 177.675 1435.78 167.5C1439.32 157.325 1443.67 144.725 1445.44 139.5C1447.21 134.275 1448.91 129.325 1449.22 128.5C1451.09 123.438 1459.08 100.577 1461.63 93C1463.29 88.05 1464.91 83.325 1465.24 82.5C1465.56 81.675 1466.54 78.975 1467.41 76.5L1469 72L1500.19 71.736L1531.39 71.472L1529.86 76.236C1529.03 78.856 1527.96 81.9 1527.49 83C1524.41 90.211 1520.4 100.582 1514.54 116.5C1513.02 120.625 1511.32 125.125 1510.78 126.5C1508.76 131.569 1502.12 149.145 1500.48 153.77C1499.55 156.393 1498.5 158.83 1498.15 159.186C1497.79 159.542 1497.5 160.458 1497.5 161.222C1497.5 161.985 1496.66 164.498 1495.63 166.805C1493.73 171.056 1487.58 187.044 1484.48 195.77C1483.55 198.393 1482.5 200.83 1482.15 201.186C1481.79 201.542 1481.5 202.458 1481.5 203.222C1481.5 203.985 1480.66 206.498 1479.63 208.805C1478.59 211.112 1476.1 217.5 1474.08 223C1472.06 228.5 1469.75 234.418 1468.95 236.151C1468.15 237.884 1467.5 239.803 1467.5 240.415C1467.5 241.027 1467.09 242.309 1466.58 243.264C1465.16 245.962 1455.73 270.738 1454.96 273.793C1454.59 275.292 1453.88 276.766 1453.39 277.068C1452.9 277.371 1452.5 278.237 1452.5 278.994C1452.5 279.751 1451.98 281.637 1451.34 283.185C1450.7 284.733 1449.46 288.025 1448.59 290.5L1447 295L1413.75 295.263C1389.85 295.453 1380.5 295.214 1380.5 294.415C1380.5 293.803 1379.85 291.884 1379.05 290.151C1378.26 288.418 1376.64 284.075 1375.46 280.5C1374.28 276.925 1372.51 272.2 1371.53 270C1370.55 267.8 1368.11 261.5 1366.1 256C1364.09 250.5 1362.05 245.1 1361.58 244C1361.1 242.9 1359.93 239.75 1358.97 237C1358.01 234.25 1356.45 230.2 1355.49 228C1354.53 225.8 1352.11 219.5 1350.1 214C1348.09 208.5 1346.05 203.1 1345.57 202C1345.09 200.9 1343.68 197.075 1342.44 193.5C1341.19 189.925 1339.87 186.55 1339.49 186C1339.11 185.45 1337.56 181.4 1336.05 177C1334.53 172.6 1332.9 168.1 1332.41 167C1331.93 165.9 1329.94 160.725 1327.98 155.5C1326.03 150.275 1323.81 144.65 1323.05 143C1322.29 141.35 1320.71 137.075 1319.55 133.5C1318.38 129.925 1317 126.1 1316.48 125C1315.96 123.9 1313.94 118.725 1311.98 113.5C1310.03 108.275 1307.77 102.573 1306.96 100.83C1306.15 99.086 1305.2 96.264 1304.86 94.559C1304.52 92.854 1303.85 91.216 1303.37 90.92C1302.89 90.624 1302.5 89.689 1302.5 88.842C1302.5 87.995 1301.85 85.884 1301.06 84.151C1298.67 78.903 1296.5 73.308 1296.5 72.378C1296.5 71.893 1310.32 71.5 1327.38 71.5H1358.26L1360.49 77.75ZM287.5 119.524C278.85 120.576 274.237 121.953 266.77 125.711C260.789 128.722 249.5 138.299 249.5 140.364C249.5 140.91 248.932 141.952 248.237 142.679C245.189 145.868 239.5 158.777 239.5 162.504C239.5 163.153 258.815 163.5 295 163.5C325.525 163.5 350.5 163.13 350.5 162.678C350.5 159.147 345.405 147.134 341.196 140.742C330.901 125.105 309.883 116.8 287.5 119.524ZM686.5 119.509C663.876 121.926 647.457 134.695 640.583 155.218C639.437 158.639 638.5 161.901 638.5 162.468C638.5 163.165 656.419 163.5 693.628 163.5H748.756L748.084 159.3C747.715 156.989 747.028 154.627 746.559 154.05C746.09 153.472 745.139 151.088 744.445 148.75C743.751 146.412 742.805 144.5 742.342 144.5C741.879 144.5 741.5 143.809 741.5 142.966C741.5 140.966 728.034 127.5 726.034 127.5C725.191 127.5 724.5 127.155 724.5 126.733C724.5 125.939 715.647 122.346 709.5 120.645C704.384 119.229 693.945 118.713 686.5 119.509ZM1607.5 119.48C1600.03 120.319 1589.93 123.578 1583.97 127.068C1574.85 132.416 1564.25 146.283 1561.51 156.466C1560.89 158.753 1560.14 161.272 1559.84 162.063C1559.36 163.302 1566.95 163.5 1614.89 163.5C1649.95 163.5 1670.5 163.143 1670.5 162.535C1670.5 160.747 1667.34 152.041 1664.72 146.602C1661.59 140.097 1652.98 130.558 1647.21 127.18C1636.51 120.923 1621.15 117.946 1607.5 119.48ZM314 122.937C329.239 129.232 338.683 137.339 343.777 148.5C346.315 154.058 348.5 159.668 348.5 160.622C348.5 161.115 325.03 161.5 294.981 161.5H241.462L242.119 158.881C242.481 157.441 244.328 153.075 246.224 149.179C253.011 135.232 267.869 124.344 284.5 121.128C290.013 120.062 310.007 121.288 314 122.937ZM712.5 122.99C723.704 127.139 732.265 133.125 737.516 140.48C741.181 145.615 745.35 154.181 746.081 158.081L746.723 161.5H693.503H640.283L640.953 158.75C641.321 157.238 643.218 152.748 645.169 148.773C652.064 134.722 666.787 124.094 683.5 121.103C689.025 120.114 708.083 121.354 712.5 122.99ZM1637.18 124.251C1645.7 127.781 1652.95 132.893 1657.72 138.742C1661.28 143.121 1666.76 153.876 1667.9 158.75L1668.54 161.5H1615.13H1561.72L1563.24 156.295C1567.55 141.619 1581.41 128.012 1597 123.164C1604.69 120.774 1606.17 120.622 1618.5 120.962C1628.55 121.24 1630.9 121.654 1637.18 124.251Z" fill="#C5C5C5"/>
</svg>
