<svg width="411" height="501" viewBox="0 0 411 501" fill="none" xmlns="http://www.w3.org/2000/svg">
<line x1="1" y1="-4.37114e-08" x2="1.00001" y2="293" stroke="#100A29" stroke-width="2"/>
<line x1="34" y1="-4.37114e-08" x2="34" y2="310" stroke="#100A29" stroke-width="2"/>
<line x1="68" y1="-4.37114e-08" x2="68" y2="327" stroke="#1F154E" stroke-width="2"/>
<line x1="103" y1="-8.74228e-08" x2="103" y2="345" stroke="#18103C" stroke-width="4"/>
<line x1="138" y1="-4.37114e-08" x2="138" y2="363" stroke="#311F77" stroke-width="2"/>
<line x1="172" y1="-4.37114e-08" x2="172" y2="379" stroke="#5235C6" stroke-width="2"/>
<line x1="205" y1="-4.37114e-08" x2="205" y2="397" stroke="#6943FC" stroke-width="2"/>
<line x1="239" y1="-4.37114e-08" x2="239" y2="413" stroke="#5034C2" stroke-width="2"/>
<line x1="273" y1="-4.37114e-08" x2="273" y2="432" stroke="#2F1E73" stroke-width="2"/>
<line x1="307.5" y1="-6.55671e-08" x2="307.5" y2="449" stroke="#160F38" stroke-width="3"/>
<line x1="342" y1="-4.37114e-08" x2="342" y2="466" stroke="#1F154E" stroke-width="2"/>
<line x1="376" y1="-4.37114e-08" x2="376" y2="484" stroke="#100B2A" stroke-width="2"/>
<line x1="410" y1="-4.37114e-08" x2="410" y2="501" stroke="#100A29" stroke-width="2"/>
</svg>
