<svg width="725" height="889" viewBox="0 0 725 889" fill="none" xmlns="http://www.w3.org/2000/svg">
<line y1="-1.77262" x2="519.377" y2="-1.77262" transform="matrix(-4.37114e-08 1 1 4.37114e-08 725 0)" stroke="#100A29" stroke-width="3.54523"/>
<line y1="-1.77262" x2="549.511" y2="-1.77262" transform="matrix(-4.37114e-08 1 1 4.37114e-08 666.504 0)" stroke="#100A29" stroke-width="3.54523"/>
<line y1="-1.77262" x2="579.645" y2="-1.77262" transform="matrix(-4.37114e-08 1 1 4.37114e-08 606.235 0)" stroke="#1F154E" stroke-width="3.54523"/>
<line y1="-3.54523" x2="611.553" y2="-3.54523" transform="matrix(-4.37114e-08 1 1 4.37114e-08 545.966 0)" stroke="#18103C" stroke-width="7.09046"/>
<line y1="-1.77262" x2="643.46" y2="-1.77262" transform="matrix(-4.37114e-08 1 1 4.37114e-08 482.152 0)" stroke="#311F77" stroke-width="3.54523"/>
<line y1="-1.77262" x2="671.821" y2="-1.77262" transform="matrix(-4.37114e-08 1 1 4.37114e-08 421.883 0)" stroke="#5235C6" stroke-width="3.54523"/>
<line y1="-1.77262" x2="703.729" y2="-1.77262" transform="matrix(-4.37114e-08 1 1 4.37114e-08 363.386 0)" stroke="#6943FC" stroke-width="3.54523"/>
<line y1="-1.77262" x2="732.09" y2="-1.77262" transform="matrix(-4.37114e-08 1 1 4.37114e-08 303.117 0)" stroke="#5034C2" stroke-width="3.54523"/>
<line y1="-1.77262" x2="765.77" y2="-1.77262" transform="matrix(-4.37114e-08 1 1 4.37114e-08 242.848 0)" stroke="#2F1E73" stroke-width="3.54523"/>
<line y1="-2.65892" x2="795.905" y2="-2.65892" transform="matrix(-4.37114e-08 1 1 4.37114e-08 182.579 0)" stroke="#160F38" stroke-width="5.31785"/>
<line y1="-1.77262" x2="826.039" y2="-1.77262" transform="matrix(-4.37114e-08 1 1 4.37114e-08 120.538 0)" stroke="#1F154E" stroke-width="3.54523"/>
<line y1="-1.77262" x2="857.946" y2="-1.77262" transform="matrix(-4.37114e-08 1 1 4.37114e-08 60.269 0)" stroke="#100B2A" stroke-width="3.54523"/>
</svg>
