<svg width="89" height="86" viewBox="0 0 89 86" fill="none" xmlns="http://www.w3.org/2000/svg">
<path d="M68.1341 62.6741C71.0413 63.3112 73.456 64.6991 75.1307 67.1685C77.4578 70.5968 77.7643 74.268 75.8641 77.9437C73.9507 81.6412 70.7742 83.6246 66.5951 83.6377C51.7633 83.6859 36.9338 83.664 22.102 83.6531C16.559 83.6487 12.08 79.5878 11.5261 74.117C10.9876 68.7951 14.707 63.9176 20.1252 62.8427C20.2215 62.823 20.3201 62.8098 20.4076 62.6719C17.1632 62.6719 13.9211 62.6785 10.6767 62.6653C10.1075 62.6653 9.52736 62.6347 8.96693 62.5318C5.90864 61.967 3.64502 59.3619 3.63845 56.2554C3.61218 43.9347 3.60999 31.6139 3.63845 19.2954C3.64721 15.7161 6.5435 12.8723 10.1403 12.846C14.6194 12.8132 19.0985 12.8373 23.5776 12.8373C23.8775 12.8373 24.1752 12.8373 24.6043 12.8373C24.6043 11.6223 24.543 10.4292 24.624 9.24481C24.6897 8.30346 24.7685 7.30957 25.1209 6.4536C26.1696 3.89444 28.1705 2.40361 30.9267 2.38172C39.8301 2.30509 48.7335 2.32042 57.6391 2.37077C61.0499 2.39047 63.8367 5.26925 63.9286 8.69314C63.9637 10.0307 63.9352 11.3683 63.9352 12.8395H64.824C69.2221 12.8395 73.618 12.8351 78.0161 12.8395C82.1186 12.8438 84.9164 15.6307 84.9186 19.7288C84.9251 31.7497 84.9251 43.7683 84.9186 55.7891C84.9186 59.8785 82.1098 62.6675 78.0095 62.6741C74.9775 62.6785 71.9454 62.6741 68.9134 62.6741H68.1363H68.1341ZM29.8671 73.1297C29.8496 72.8757 29.843 72.7115 29.8277 72.5495C29.4446 68.4251 26.0842 65.3099 22.0079 65.2989C17.9623 65.288 14.5712 68.355 14.1444 72.4138C13.654 77.0549 17.3625 81.0282 22.229 81.0304C36.925 81.0392 51.621 81.0348 66.317 81.0304C66.8337 81.0304 67.3547 80.9845 67.8626 80.9013C71.2646 80.3496 73.7668 77.7598 74.3514 74.2133C74.8636 71.0959 73.1429 67.7508 70.2313 66.214C67.254 64.6422 63.6397 65.1326 61.19 67.4356C59.5568 68.9724 58.7841 70.8945 58.6658 73.1143H56.1264C56.0235 71.3761 56.6365 69.222 57.7026 67.5735C59.478 64.8283 62.035 63.2718 65.2071 62.7463C65.5705 56.6932 60.4785 50.6664 54.2984 49.7316C50.9139 49.2194 47.7571 49.8345 44.9199 51.7457C41.0757 54.3333 39.1799 58.0462 38.9851 62.6347H36.3077C36.485 61.4241 36.5769 60.2594 36.8418 59.1342C37.1155 57.9783 37.5577 56.8618 37.9255 55.7234C31.9359 52.8906 24.7772 56.899 23.7002 62.7814C29.3286 64.4846 33.1531 69.0534 32.3518 73.1319H29.8671V73.1297ZM61.3169 49.8345V49.0026C61.3169 35.7799 61.3169 22.5551 61.3169 9.33238C61.3169 6.55212 59.7276 4.97152 56.9408 4.97152C48.4993 4.97152 40.0599 4.97152 31.6184 4.97152C28.79 4.97152 27.2269 6.54993 27.2247 9.39806C27.2247 23.9058 27.2247 38.4135 27.2247 52.9213V53.8736C28.1661 53.4642 29.0002 53.103 29.8474 52.733V51.7194C29.8474 38.0304 29.8474 24.3436 29.8474 10.6547C29.8474 8.60338 30.8588 7.59417 32.9144 7.59417C40.4255 7.59417 47.9388 7.59417 55.4499 7.59417C57.7551 7.59417 58.6921 8.52457 58.6921 10.8101C58.6921 22.9951 58.6921 35.1801 58.6921 47.3651C58.6921 47.584 58.6527 47.8117 58.7052 48.0175C58.7512 48.2014 58.8541 48.4291 59.003 48.5188C59.721 48.9567 60.461 49.3529 61.3148 49.8323L61.3169 49.8345ZM32.5248 41.7192V52.2164C34.6724 52.0697 36.7192 52.3214 38.6501 53.1665C39.2346 53.4226 39.5148 53.3131 39.9176 52.8315C43.5867 48.4685 48.2519 46.4807 53.9591 47.0674C54.6487 47.1374 55.3295 47.2775 56.0147 47.3848V41.7148H32.5248V41.7192ZM56.0366 10.2737H32.5379V18.0432H56.0366V10.2737ZM56.0125 39.0353V31.2658H32.5182V39.0353H56.0125ZM56.0366 20.7621H32.5379V28.5337H56.0366V20.7621ZM24.5693 15.4599C19.9151 15.4599 15.355 15.4599 10.7971 15.4599C7.77601 15.4599 6.25015 16.9748 6.25015 19.974C6.25015 31.8525 6.25015 43.7333 6.25015 55.6118C6.25015 55.857 6.24358 56.1044 6.25891 56.3495C6.35523 57.9214 7.44982 59.3422 8.8728 59.6793C8.8728 59.3443 8.8728 59.0247 8.8728 58.7029C8.8728 46.1676 8.8728 33.6324 8.8728 21.0993C8.8728 19.1049 9.89952 18.0848 11.9004 18.0848C15.8322 18.0848 19.764 18.0848 23.6958 18.0848H24.5693V15.4621V15.4599ZM63.9724 18.0826C68.2085 18.0826 72.357 18.0826 76.5033 18.0826C78.7297 18.0826 79.6755 19.0349 79.6755 21.2853C79.6755 33.7659 79.6755 46.2443 79.6755 58.7248V59.6968C81.3261 59.2261 82.2959 57.7681 82.2981 55.8373C82.3003 43.8208 82.3003 31.8066 82.2981 19.7901C82.2981 17.0602 80.7 15.4643 77.9745 15.4621C73.5786 15.4599 69.1827 15.4621 64.7868 15.4621C64.5241 15.4621 64.2592 15.4862 63.9724 15.4993V18.0826ZM63.9768 39.0068H76.9871V31.2396H63.9768V39.0068ZM11.5348 31.2308V39.0177H24.5496V31.2308H11.5348ZM11.5217 60.0252H21.5241C22.5355 58.6569 23.4593 57.4157 24.3722 56.1656C24.4773 56.0212 24.5912 55.8351 24.5933 55.6665C24.613 54.5281 24.6043 53.3898 24.6043 52.2295H11.5239V60.0252H11.5217ZM11.5567 20.7359V28.5337H24.5539V20.7359H11.5567ZM63.9834 20.7424V28.5272H76.9959V20.7424H63.9834ZM24.5671 41.7477H11.5567V49.5171H24.5671V41.7477ZM77.0156 41.7477H64.0053V49.5149H77.0156V41.7477ZM67.7838 60.0077H77.0047V52.2448H64.0797C64.8284 53.4686 65.6712 54.6223 66.2754 55.8898C66.8906 57.1792 67.2737 58.5825 67.7838 60.0077Z" fill="#C5C5C5"/>
<path d="M49.1582 52.6696C55.3645 50.6972 61.8314 55.2463 62.44 61.1834C61.6234 61.3016 60.8025 61.422 59.9881 61.5402C58.8475 56.2358 54.1452 53.9722 49.9003 55.1018C49.6595 54.3115 49.4187 53.5168 49.1604 52.6696H49.1582Z" fill="#553EFF"/>
<path d="M22.0144 78.3511V75.8357H24.5648V78.3511H22.0144Z" fill="#553EFF"/>
<path d="M27.2729 75.8291H29.7883V78.3598H27.2729V75.8291Z" fill="#553EFF"/>
<path d="M35.0576 75.8486V78.3684H32.5378V75.8486H35.0576Z" fill="#553EFF"/>
<path d="M35.1626 44.3333H37.6539V46.8837H35.1626V44.3333Z" fill="#553EFF"/>
<path d="M40.3752 46.8813V44.3572H42.895V46.8813H40.3752Z" fill="#553EFF"/>
<path d="M45.6511 12.8572H48.1424V15.4076H45.6511V12.8572Z" fill="#553EFF"/>
<path d="M53.3855 15.4337H50.8789V12.8833H53.3855V15.4337Z" fill="#553EFF"/>
<path d="M45.6467 33.8535H48.1555V36.4039H45.6467V33.8535Z" fill="#553EFF"/>
<path d="M50.8965 33.8403H53.3878V36.3907H50.8965V33.8403Z" fill="#553EFF"/>
<path d="M35.1321 25.9089V23.3936H37.6628V25.9089H35.1321Z" fill="#553EFF"/>
<path d="M42.9233 23.3762V25.8982H40.3882V23.3762H42.9233Z" fill="#553EFF"/>
<path d="M16.7013 23.3762V25.8982H14.1663V23.3762H16.7013Z" fill="#553EFF"/>
<path d="M21.9445 23.3762V25.8982H19.4094V23.3762H21.9445Z" fill="#553EFF"/>
<path d="M69.1411 25.9179H66.6191V23.3828H69.1411V25.9179Z" fill="#553EFF"/>
<path d="M71.8381 25.8916V23.3806H74.3885V25.8916H71.8381Z" fill="#553EFF"/>
<path d="M14.175 44.3486H16.6904V46.899H14.175V44.3486Z" fill="#553EFF"/>
<path d="M21.916 46.9076H19.4094V44.3572H21.916V46.9076Z" fill="#553EFF"/>
<path d="M66.595 46.8989V44.3682H69.1388V46.8989H66.595Z" fill="#553EFF"/>
<path d="M71.8381 46.8989V44.3682H74.382V46.8989H71.8381Z" fill="#553EFF"/>
</svg>
