<svg width="89" height="86" viewBox="0 0 89 86" fill="none" xmlns="http://www.w3.org/2000/svg">
<g clip-path="url(#clip0_276_1065)">
<path d="M0 77.293C0.628192 75.7941 1.75755 75.1797 3.36268 75.3345C3.98625 75.3945 4.62137 75.3437 5.37659 75.3437C5.37659 74.9118 5.37659 74.5492 5.37659 74.1866C5.37659 59.5211 5.37659 44.8579 5.37659 30.1924C5.37659 27.2708 6.96785 25.086 9.62843 24.407C10.2335 24.2523 10.8848 24.2246 11.513 24.2199C14.4854 24.2015 17.4601 24.2107 20.4324 24.2107C20.7465 24.2107 21.0606 24.2107 21.3608 24.2107C21.4255 24.0721 21.4948 23.9959 21.4879 23.9243C21.28 21.9427 22.2708 20.7903 24.0422 20.1136C24.742 19.8457 25.3864 19.4346 26.0561 19.0882L25.9637 18.8133C25.7605 18.7879 25.555 18.7394 25.3517 18.7394C22.4071 18.7348 19.4624 18.7487 16.5178 18.7256C16.0189 18.7209 15.7764 18.8849 15.5385 19.3283C14.6586 20.9681 12.8202 21.7464 11.0511 21.2961C9.29586 20.848 8.07412 19.2406 8.08798 17.3953C8.10183 15.5892 9.3282 14.0049 11.0419 13.5753C12.8294 13.1273 14.654 13.8871 15.5293 15.5315C15.7903 16.0234 16.0697 16.1527 16.5894 16.1481C19.8758 16.125 23.1646 16.1366 26.5111 16.1366C26.2155 15.0465 25.6681 14.0049 25.742 13.0118C25.8136 12.051 26.5296 11.1387 27.04 10.0371C25.6589 8.65369 24.0792 7.06012 22.474 5.49195C22.3147 5.3349 22.0052 5.29102 21.7581 5.27254C21.3285 5.2379 20.8897 5.28871 20.4601 5.25637C19.3446 5.17323 18.4786 5.25637 17.7765 6.46195C16.9196 7.93774 14.908 8.3165 13.2983 7.686C11.6885 7.0555 10.6423 5.42497 10.7601 3.73439C10.8802 2.00686 12.0788 0.568025 13.7648 0.122286C15.4138 -0.311906 17.2522 0.371715 18.0906 1.89139C18.4508 2.54267 18.8481 2.67894 19.5109 2.67432C23.8551 2.64198 23.1092 2.46646 26.0538 5.38571C27.0538 6.37881 28.0308 7.39962 28.9754 8.365C29.144 8.32112 29.2202 8.32574 29.2456 8.2911C30.4743 6.7645 31.9662 6.4735 33.7122 7.31878C33.9178 7.41809 34.1718 7.42733 34.3635 7.54512C35.6846 8.35114 36.7747 7.4689 37.9202 7.0555C38.0934 6.99314 38.2043 6.70907 38.3082 6.50814C38.6916 5.76678 39.0726 5.0208 39.4329 4.26789C39.9318 3.22168 40.7725 2.6951 41.9064 2.67432C43.5231 2.6466 45.1398 2.6466 46.7565 2.67432C47.8904 2.69279 48.738 3.21244 49.2346 4.26097C49.3939 4.60047 49.6249 4.91456 49.7265 5.27023C50.1561 6.76912 51.2854 7.45043 52.6619 7.84998C52.8883 7.91464 53.1654 7.90541 53.394 7.84074C54.0846 7.63981 54.7775 7.42964 55.4426 7.15712C56.8745 6.56819 58.087 6.81531 59.1055 7.99317C59.2187 8.1225 59.3526 8.23336 59.7499 8.60981C60.1771 8.06476 60.5582 7.48738 61.0294 6.99545C62.0848 5.88918 63.198 4.83604 64.2627 3.7367C64.9694 3.00689 65.8147 2.66508 66.817 2.66508C67.7108 2.66508 68.6069 2.63967 69.5007 2.67432C69.9672 2.69279 70.2028 2.53344 70.4314 2.11541C71.3853 0.383263 73.2583 -0.376573 75.0644 0.173096C76.8543 0.715835 78.0552 2.43182 77.9143 4.2448C77.7688 6.134 76.3831 7.61902 74.4708 7.93543C72.905 8.1941 71.2421 7.36959 70.4361 5.84761C70.1936 5.39033 69.9118 5.31411 69.4453 5.24021C67.272 4.89147 65.6346 5.63283 64.2789 7.35343C63.4497 8.40657 62.3804 9.27034 61.3157 10.3189C63.8978 11.9494 62.8516 14.0372 62.0871 16.1366H66.5445C68.0734 16.1366 69.6046 16.1066 71.1336 16.1481C72.1313 16.1758 72.8888 16.1296 73.5101 15.0442C74.3623 13.5545 76.3369 13.1042 77.9605 13.6885C79.6673 14.3028 80.695 15.8918 80.5772 17.7394C80.471 19.4161 79.2585 20.8757 77.628 21.2938C75.9235 21.7303 74.0805 21.0235 73.2421 19.4692C72.9073 18.848 72.5354 18.7163 71.9026 18.7232C69.1312 18.751 66.3597 18.7348 63.5883 18.7348C63.3112 18.7348 63.034 18.7348 62.7592 18.7348C62.7292 18.8018 62.6968 18.8664 62.6668 18.9334C62.8839 19.1136 63.0779 19.3307 63.3204 19.4646C63.9509 19.811 64.5883 20.1575 65.2512 20.4369C66.6184 21.0143 67.2466 22.0236 67.1773 23.4947C67.1681 23.6934 67.2004 23.892 67.2212 24.213C67.5468 24.213 67.854 24.213 68.1612 24.213C71.1636 24.213 74.166 24.2061 77.1684 24.213C81.0114 24.2246 83.3048 26.5248 83.3071 30.3633C83.3071 44.9711 83.3071 59.5765 83.3071 74.1843C83.3071 74.5284 83.3071 74.8726 83.3071 75.3414C84.0138 75.3414 84.672 75.3922 85.321 75.3322C86.9284 75.1774 88.0555 75.7941 88.6837 77.2906V81.2746C88.3488 82.0344 88.1178 82.8612 87.6606 83.5402C86.4273 85.3763 84.605 85.9999 82.4341 85.9976C57.0385 85.9768 31.6429 85.9837 6.24728 85.9837C5.95859 85.9837 5.6699 85.9837 5.38121 85.9676C3.35113 85.8613 1.80836 84.9121 0.780621 83.1823C0.436501 82.6003 0.256358 81.9166 0 81.2769C0 79.9489 0 78.6209 0 77.293ZM2.61439 77.9419C2.61439 78.942 2.55665 79.8358 2.62825 80.7203C2.72756 81.9744 3.73913 83.0714 4.95856 83.3139C5.3789 83.397 5.82002 83.3855 6.2519 83.3855C31.6544 83.3878 57.0593 83.3878 82.4618 83.3855C82.7205 83.3855 82.9814 83.3855 83.2401 83.3693C84.6512 83.2816 85.8614 82.2584 86.0277 80.8566C86.1386 79.9258 86.0485 78.972 86.0485 77.9835C85.7459 77.9673 85.4942 77.9419 85.2425 77.9419C75.6002 77.9419 65.9579 77.935 56.3179 77.9627C55.9161 77.9627 55.4033 78.1752 55.1354 78.4639C53.7058 80.009 51.9875 80.6626 49.8836 80.6233C46.1606 80.5517 42.4353 80.5586 38.7124 80.6233C36.6707 80.6579 35.0102 80.002 33.6083 78.5239C33.3011 78.2006 32.7284 77.972 32.2757 77.9673C28.2063 77.9258 24.1346 77.9442 20.0652 77.9396C19.7211 77.9396 19.3677 77.9304 19.0375 77.8472C18.3908 77.6879 18.0605 77.2098 18.0952 76.5701C18.1321 75.8934 18.5178 75.4453 19.2292 75.3645C19.4855 75.3368 19.7488 75.346 20.0075 75.346C24.0491 75.346 28.0908 75.4084 32.1302 75.3114C33.5852 75.2767 34.6938 75.6162 35.5876 76.7733C36.3289 77.7341 37.3659 78.0343 38.5761 78.0205C42.1836 77.9812 45.7957 77.9304 49.4009 78.0389C51.1677 78.092 52.5718 77.6348 53.6458 76.2375C54.2093 75.5031 54.9437 75.3252 55.8468 75.3275C63.7846 75.3553 71.7248 75.3437 79.6626 75.3437H80.7135C80.7135 74.9511 80.7135 74.6924 80.7135 74.4338C80.7135 59.7105 80.7135 44.9895 80.7135 30.2663C80.7135 27.9868 79.5402 26.8135 77.233 26.8112C55.2948 26.8066 33.3542 26.8066 11.416 26.8112C9.12958 26.8112 7.97712 27.9983 7.97712 30.3032C7.97712 44.9965 7.97712 59.6897 7.97712 74.3829C7.97712 74.6855 8.00483 74.988 8.01869 75.3045C8.31893 75.3183 8.51986 75.3368 8.71848 75.3368C10.2474 75.3414 11.7786 75.3299 13.3075 75.3483C14.0466 75.3576 14.4969 75.7548 14.5754 76.5008C14.6517 77.2214 14.2152 77.7664 13.4553 77.8934C13.1458 77.9465 12.8225 77.9327 12.5061 77.9327C9.24505 77.935 5.9863 77.9327 2.6167 77.9327L2.61439 77.9419ZM24.1993 24.1229C24.2732 24.1483 24.3517 24.1991 24.4325 24.1991C27.8091 24.2061 31.1856 24.2222 34.5621 24.1876C34.7677 24.1876 35.0379 23.8227 35.1603 23.5733C35.7954 22.2938 36.3613 20.9797 37.0218 19.714C37.1696 19.43 37.6084 19.1182 37.9017 19.1297C38.3359 19.1459 38.8694 19.3353 39.165 19.6401C39.62 20.1043 39.486 20.7141 39.0957 21.2199C38.4283 22.0929 37.904 23.0236 37.7447 24.1622H50.9321C50.8905 23.9382 50.8767 23.7696 50.8305 23.6125C49.9667 20.6425 47.3107 18.7417 44.0428 18.751C42.9411 18.7533 42.3568 18.3145 42.3522 17.4761C42.3476 16.6516 42.948 16.1805 44.0312 16.1527C48.5717 16.0419 52.4702 19.0489 53.4679 23.4947C53.5996 24.0791 53.8144 24.2315 54.371 24.2269C57.5166 24.2061 60.6621 24.2176 63.81 24.213C64.0364 24.213 64.2604 24.1784 64.4682 24.1599C64.7685 23.3539 64.5191 22.885 63.7569 22.5825C63.064 22.3053 62.3619 21.9959 61.7569 21.5686C61.2395 21.2014 60.6575 20.7233 60.4404 20.1644C59.0501 16.5962 58.7637 17.8595 60.0894 13.9541C60.1356 13.8178 60.2372 13.6746 60.2187 13.5476C60.1725 13.215 60.1748 12.7993 59.9762 12.5799C59.2672 11.7854 58.4334 11.0972 57.7406 10.2888C57.154 9.60522 56.572 9.37889 55.7405 9.79922C53.9252 10.7184 52.1631 10.7115 50.3039 9.74148C49.2808 9.20798 48.3408 8.69526 48.0036 7.57514C47.4262 5.64899 46.2437 5.14552 44.2506 5.17785C42.4145 5.20787 41.4284 5.66516 40.7124 7.39731C39.6985 9.85234 36.5322 11.1526 34.0933 10.1595C32.4351 9.48282 31.4073 9.74379 30.0886 11.0256C28.622 12.4529 28.1024 13.6608 29.0585 15.5245C29.368 16.1273 29.4234 17.0188 29.241 17.6817C28.6474 19.8503 27.6705 21.7857 25.2316 22.4393C25.1231 22.4693 25.0307 22.5525 24.9221 22.5894C24.1646 22.8504 23.8829 23.3377 24.19 24.1229H24.1993ZM16.1205 3.94687C16.0997 3.18241 15.4993 2.61196 14.7256 2.6212C13.9657 2.63275 13.3583 3.24015 13.3583 3.98844C13.3583 4.74828 14.0604 5.41804 14.8133 5.37878C15.5616 5.33952 16.1413 4.70209 16.1205 3.94456V3.94687ZM75.323 4.08313C75.3785 3.34639 74.7965 2.67894 74.0505 2.62582C73.2745 2.56808 72.6347 3.09927 72.5678 3.8568C72.4985 4.64897 73.0828 5.3349 73.8634 5.38109C74.5817 5.42266 75.2676 4.81294 75.323 4.08544V4.08313ZM13.4507 17.453C13.4576 16.7163 12.841 16.0811 12.0973 16.0604C11.3375 16.0396 10.7255 16.617 10.6977 17.3791C10.6677 18.1874 11.2705 18.8133 12.0696 18.8064C12.8248 18.8018 13.4438 18.1944 13.453 17.4507L13.4507 17.453ZM76.584 18.8064C77.3531 18.8272 77.9605 18.2613 77.9882 17.4969C78.016 16.7232 77.464 16.1089 76.7041 16.0627C75.9258 16.0165 75.2468 16.6447 75.2353 17.4207C75.2237 18.169 75.8242 18.7856 76.584 18.8064Z" fill="#C5C5C5"/>
<path d="M44.4355 29.6035C54.9115 29.6035 65.3899 29.6035 75.8659 29.6035C77.6258 29.6035 77.9329 29.9107 77.9329 31.659C77.9329 44.6178 77.9329 57.5766 77.9329 70.5353C77.9329 72.2028 77.5772 72.5585 75.8936 72.5585C54.8538 72.5585 33.814 72.5585 12.7741 72.5585C11.0997 72.5585 10.751 72.2028 10.751 70.5215C10.751 57.5627 10.751 44.6039 10.751 31.6451C10.751 29.9084 11.0628 29.6035 12.8319 29.6035C23.3656 29.6035 33.9017 29.6035 44.4355 29.6035ZM75.3047 32.2479H13.4185V69.8979H75.3047V32.2479Z" fill="#C5C5C5"/>
<path d="M47.0936 42.9594C46.0774 42.9594 45.1836 42.9917 44.2944 42.9524C42.2343 42.8601 40.6292 41.4097 40.3821 39.4581C40.1396 37.5274 41.3405 35.7005 43.2321 35.1462C43.5046 35.0654 43.7979 35.0077 44.0796 35.0077C48.7264 34.9984 53.3755 34.9661 58.0223 35.0146C60.0547 35.0354 61.6159 36.6613 61.7799 38.7283C61.9346 40.6521 60.5304 42.5021 58.5604 42.8393C57.7151 42.9848 56.8375 42.9317 55.9737 42.964C55.7174 42.9732 55.4587 42.964 55.0661 42.964C55.0661 43.5991 55.0776 44.1927 55.0638 44.7862C55.0384 45.7285 54.5372 46.2943 53.752 46.2897C52.9598 46.2851 52.484 45.7308 52.4725 44.77C52.4609 43.7885 52.4586 42.8069 52.4725 41.8254C52.4886 40.8485 52.9344 40.3912 53.8998 40.375C55.0823 40.3542 56.267 40.3773 57.4495 40.3658C58.5211 40.3542 59.1817 39.8092 59.1817 38.9616C59.1817 38.1047 58.5512 37.5874 57.4495 37.5874C53.1769 37.5805 48.9043 37.5805 44.6316 37.5874C43.5877 37.5874 42.978 38.0955 42.9572 38.9246C42.9341 39.7861 43.5808 40.3496 44.6432 40.3635C45.7402 40.3773 46.8372 40.3635 47.9343 40.3681C49.2715 40.375 49.6849 40.7861 49.6849 42.1302C49.6872 48.8856 49.6849 55.641 49.6849 62.3941C49.6849 62.6828 49.6687 62.9738 49.6987 63.2601C49.775 64.0292 50.2207 64.4796 50.9805 64.5304C51.7496 64.5812 52.2369 64.1632 52.4171 63.4264C52.484 63.1516 52.4632 62.8537 52.4632 62.565C52.4656 58.812 52.4632 55.059 52.4679 51.306C52.4679 50.3961 52.9205 49.8348 53.6503 49.7725C54.3871 49.7101 55.043 50.2713 55.0476 51.1005C55.0661 55.2276 55.1192 59.357 55.0176 63.4842C54.9645 65.6366 53.0614 67.2141 50.9505 67.1471C48.7772 67.0801 47.1051 65.3941 47.0982 63.1678C47.0774 56.8166 47.089 50.4653 47.089 44.1164C47.089 43.7746 47.089 43.4328 47.089 42.9594H47.0936Z" fill="#04040A"/>
<path d="M37.5761 51.1005C37.5761 55.1099 37.59 59.1192 37.5692 63.1286C37.56 64.9854 36.3867 66.512 34.68 67.0039C33.0264 67.482 31.1972 66.8608 30.2988 65.3734C29.927 64.7591 29.6406 63.9808 29.636 63.2764C29.5898 55.1422 29.5921 47.008 29.6152 38.8739C29.6221 36.6844 31.3774 35.0054 33.5483 34.9915C35.7862 34.9777 37.5484 36.689 37.5669 38.9847C37.5969 43.0218 37.5761 47.0611 37.5761 51.0982V51.1005ZM32.1995 51.0566C32.1995 54.8627 32.1995 58.6689 32.1995 62.475C32.1995 62.7336 32.1857 62.9969 32.2111 63.2533C32.2873 64.02 32.7215 64.4612 33.4836 64.5351C34.2111 64.6067 34.8255 64.1055 34.9525 63.3595C34.9918 63.1355 34.9779 62.8999 34.9779 62.669C34.9779 54.9413 34.9802 47.2136 34.9733 39.4859C34.9733 39.1187 34.9433 38.7261 34.8139 38.3912C34.5784 37.7815 34.061 37.5413 33.4213 37.6082C32.7677 37.6752 32.3751 38.0678 32.2365 38.6891C32.1741 38.9662 32.2019 39.2642 32.2019 39.5506C32.2019 43.3844 32.2019 47.2205 32.2019 51.0543L32.1995 51.0566Z" fill="#04040A"/>
</g>
<defs>
<clipPath id="clip0_276_1065">
<rect width="88.686" height="86" fill="white"/>
</clipPath>
</defs>
</svg>
