<svg width="56" height="86" viewBox="0 0 56 86" fill="none" xmlns="http://www.w3.org/2000/svg">
<path d="M86.2342 55.9577C85.5905 57.4223 84.3099 58.1359 82.9351 58.7051C79.9643 59.9354 76.8207 60.4937 73.6726 61.03C73.4843 61.0629 73.2939 61.087 73.1078 61.1198C71.9169 61.3256 71.3302 60.8527 71.3258 59.6552C71.317 57.28 71.3258 54.9025 71.3214 52.5272C71.3214 52.3127 71.2995 52.0982 71.282 51.7873C69.0162 51.5399 66.7679 51.2816 64.5174 51.0539C63.1864 50.9204 61.851 50.8459 60.52 50.719C60.0843 50.6774 59.8391 50.8065 59.6093 51.1984C57.9652 54.0071 55.8285 56.3999 53.381 58.5322C53.1621 58.7226 53.0045 59.1276 53.0242 59.4166C53.103 60.5046 53.2672 61.5861 53.4007 62.6676C53.4183 62.8033 53.4161 62.9434 53.4555 63.0725C53.5978 63.5345 56.2554 64.2678 56.586 63.9154C57.5536 62.8865 58.6942 62.7858 59.9661 63.1842C61.319 63.6089 62.6807 63.9986 64.0358 64.4189C69.2439 66.0323 72.3481 69.5153 73.3158 74.8876C73.6967 77.0089 74.0842 79.128 74.4476 81.2516C74.6161 82.2301 74.2768 82.8343 73.5413 82.9766C72.7794 83.1233 72.2102 82.6395 72.0285 81.6434C71.6235 79.417 71.2667 77.1797 70.8289 74.9576C70.0407 70.9492 67.6983 68.2522 63.8256 66.9343C62.3545 66.4351 60.8527 66.0279 59.3641 65.5835C58.4534 65.3121 58.368 65.3471 58.2892 66.2797C57.9827 69.8503 57.4682 73.3858 56.3955 76.8097C55.8439 78.572 55.1127 80.2839 54.4012 81.9915C54.005 82.9394 53.3022 83.2218 52.5973 82.8584C51.9165 82.5081 51.7545 81.8251 52.1879 80.9494C54.3311 76.628 55.1959 71.976 55.7475 67.2408C55.8067 66.7372 55.6622 66.4921 55.1543 66.3914C54.6551 66.2928 54.1757 66.1068 53.6065 65.9338C53.3307 67.6326 52.6061 69.0381 51.3473 70.1349C50.9773 70.4567 50.5898 70.7654 50.1804 71.0302C49.4711 71.4856 48.7903 71.3761 48.3809 70.785C47.9781 70.2049 48.1445 69.5109 48.8034 69.014C49.1077 68.7841 49.4252 68.5652 49.7076 68.3135C50.7737 67.3612 51.2904 66.1659 51.1546 64.7363C51.0233 63.3528 50.8372 61.9736 50.6599 60.4762C48.6108 61.5598 46.5552 62.372 44.2609 62.3611C41.9885 62.3501 39.946 61.573 37.8991 60.4543C37.724 62.0524 37.4919 63.5345 37.4131 65.0275C37.3102 66.9759 38.4092 68.3003 40.0314 69.13C40.9552 69.6029 42.0389 69.7715 43.0568 70.0495C43.3962 70.1414 43.7683 70.1042 44.1076 70.1962C44.7556 70.3735 45.0337 70.8464 44.9658 71.4987C44.9001 72.1248 44.517 72.5211 43.8953 72.5364C39.6505 72.6459 35.6968 70.0166 35.0729 66.4417C35.051 66.3125 34.9897 66.1878 34.9218 65.9907C34.2081 66.2031 33.5207 66.4089 32.6429 66.6694C33.1048 69.2548 33.4113 71.8359 34.0571 74.3293C34.6394 76.5842 35.5676 78.7559 36.393 80.9451C36.7367 81.8514 36.6491 82.5103 35.9661 82.8606C35.2633 83.2218 34.6131 82.9197 34.1534 81.9959C32.262 78.1889 31.2943 74.1148 30.6923 69.94C30.5106 68.6725 30.3836 67.394 30.2654 66.1177C30.2129 65.5551 30.0137 65.3187 29.4291 65.5004C27.6866 66.0455 25.898 66.4745 24.2014 67.1335C20.3112 68.6418 18.2249 71.6104 17.5813 75.6823C17.2704 77.6481 16.9004 79.6053 16.5545 81.5668C16.5217 81.7551 16.4845 81.9455 16.421 82.125C16.1868 82.7818 15.7051 83.1014 15.0243 82.9701C14.3413 82.8365 13.9385 82.333 14.0589 81.6609C14.6149 78.6048 14.9805 75.483 15.8825 72.5276C17.1369 68.4229 20.1251 65.82 24.2101 64.5152C25.7426 64.027 27.2925 63.598 28.8315 63.1317C30.0049 62.7748 31.0338 62.985 31.9248 63.8497C32.0649 63.9854 32.3035 64.165 32.448 64.1299C33.2668 63.9263 34.0768 63.6811 34.8737 63.3987C35.0072 63.3506 35.0991 63.0572 35.1254 62.8646C35.2852 61.7021 35.4494 60.5397 35.5457 59.3706C35.5676 59.1057 35.41 58.7314 35.2064 58.5541C32.7173 56.3846 30.5588 53.9436 28.8621 51.1021C28.7527 50.9182 28.4418 50.7212 28.2426 50.7409C25.5487 50.9962 19.6336 50.4586 17.4018 51.9208C17.4018 52.1419 17.4018 52.4309 17.4018 52.7199C17.4018 55.0689 17.4083 57.4179 17.3974 59.7669C17.393 60.7695 16.861 61.3256 15.9372 61.1855C12.4301 60.6491 8.93398 60.0559 5.62174 58.7073C5.1445 58.5125 4.68696 58.2607 4.23599 58.0068C2.91153 57.2646 2.25915 56.216 2.29856 54.6092C2.38613 51.0342 2.32483 47.4549 2.32702 43.8778C2.32702 43.6588 2.31607 43.4399 2.33359 43.2232C2.39269 42.5051 2.86994 42.0323 3.53107 42.0191C4.22942 42.006 4.72418 42.4898 4.77891 43.2538C4.79423 43.4706 4.78329 43.6917 4.78329 43.9084C4.78329 47.4045 4.82488 50.9007 4.75483 54.3946C4.73731 55.2944 5.07445 55.7738 5.80783 56.1C6.35512 56.3452 6.89366 56.6342 7.46723 56.7874C9.91036 57.442 12.3666 58.0527 14.9039 58.7008V16.4823C11.5347 15.6219 8.17652 14.766 4.78329 13.9012V14.5996C4.78329 21.918 4.78329 29.2387 4.78329 36.5571C4.78329 36.8308 4.80956 37.111 4.75483 37.3737C4.6191 38.0129 4.18783 38.3895 3.54202 38.3829C2.8984 38.3741 2.47588 37.991 2.35329 37.3474C2.30732 37.1088 2.32921 36.857 2.32921 36.6119C2.32921 28.1178 2.34453 19.626 2.31169 11.1319C2.30732 9.80964 2.83272 8.87924 3.89229 8.19402C5.89977 6.89365 8.18309 6.32884 10.473 5.81876C15.7861 4.6366 21.1847 4.07616 26.6029 3.65584C34.5081 3.04287 42.4263 2.82395 50.3424 3.11073C56.5575 3.33622 62.7617 3.89884 68.968 4.33011C69.986 4.40016 70.4655 4.94527 70.3582 5.75527C70.2575 6.50397 69.6533 6.88051 68.6856 6.76667C56.9385 5.39405 45.1519 5.22549 33.3522 5.70711C26.2592 5.99827 19.1794 6.54119 12.2068 7.96854C10.265 8.36697 8.36917 9.00183 6.47553 9.59948C5.88007 9.78775 5.35904 10.2103 4.80299 10.5233C4.8008 10.6328 4.79642 10.7422 4.79423 10.8517C5.80126 11.2983 6.77107 11.8916 7.82407 12.1608C10.4883 12.8417 13.1854 13.3999 15.8781 13.9647C17.1609 14.234 17.4039 14.4726 17.4039 15.8168C17.4039 26.6314 17.4039 37.4459 17.4039 48.2605C17.4039 48.5823 17.4039 48.9041 17.4039 49.2763C20.4447 48.9632 23.3958 48.6589 26.3906 48.3503C26.2067 47.7833 26.0272 47.2228 25.8257 46.5967C25.1077 46.5967 24.3743 46.6033 23.6409 46.5967C21.5962 46.577 20.4579 45.4408 20.4403 43.383C20.4272 41.8265 20.4316 40.27 20.4403 38.7135C20.4513 36.5199 21.513 35.4538 23.6979 35.4187C23.9343 35.4144 24.1685 35.3881 24.232 35.3837C24.0306 33.2821 23.63 31.2265 23.6825 29.1861C23.7832 25.3069 25.2916 21.964 28.3039 19.4289C30.3508 17.706 32.7107 17.1193 35.3531 17.8067C35.6245 17.8768 36.0514 17.7651 36.2682 17.5769C40.0029 14.3588 44.3375 12.9774 49.2216 13.378C52.7396 13.667 55.8855 14.9674 58.6351 17.1938C59.3772 17.7936 59.5042 18.5073 59.0029 19.1027C58.5169 19.6785 57.8557 19.7004 57.1224 19.1181C54.1078 16.734 50.6927 15.5957 46.8485 15.7927C43.2451 15.9788 40.108 17.3032 37.5182 19.8186C36.7564 20.5585 36.0974 20.7928 35.0597 20.355C33.026 19.4946 31.1739 20.0857 29.6284 21.524C26.8328 24.1269 25.8367 27.4238 26.1519 31.1695C26.1891 31.6052 26.2504 32.0386 26.3161 32.4699C26.3577 32.7348 26.43 32.9975 26.5088 33.3456C26.6467 33.2449 26.7605 33.1923 26.8306 33.107C27.8398 31.8832 29.1424 31.3622 30.7164 31.3534C31.1652 31.3512 31.6796 31.1673 32.0496 30.9068C33.4594 29.9108 34.2475 28.4396 34.9043 26.8919C35.0006 26.6664 35.0707 26.4299 35.167 26.2045C35.8347 24.6523 37.4985 24.3568 38.6894 25.563C39.7621 26.6511 40.8042 27.7741 41.9469 28.7833C42.6759 29.4269 43.5363 29.9348 44.3857 30.4186C45.5853 31.1017 46.8704 31.4344 48.2934 31.3994C51.1327 31.3272 53.9743 31.4301 56.8137 31.36C58.8715 31.3096 60.7433 31.5702 62.0634 33.5886C62.8121 30.353 62.4727 27.4129 61.2512 24.556C61.1023 24.2057 60.9162 23.8708 60.7498 23.5271C60.3492 22.7061 60.4915 22.0494 61.1505 21.686C61.8094 21.3226 62.4837 21.5612 62.9084 22.3537C63.8848 24.1729 64.4977 26.1103 64.7801 28.1594C65.1129 30.5785 64.8436 32.9406 64.1387 35.4231C64.5853 35.4231 64.9531 35.41 65.3187 35.4253C66.8708 35.4954 68.0311 36.5506 68.0902 38.1027C68.1602 40.0117 68.1624 41.9272 68.0967 43.8362C68.042 45.4452 66.8511 46.5267 65.2048 46.588C64.3883 46.6186 63.5717 46.5924 62.7442 46.5924C62.5472 47.1966 62.3633 47.7548 62.1706 48.3437C65.2048 48.659 68.2062 48.9698 71.3236 49.2938C71.3236 48.972 71.3236 48.659 71.3236 48.3437C71.3236 37.5007 71.3236 26.6598 71.3236 15.8168C71.3236 14.4266 71.536 14.2187 72.902 13.9209C75.6691 13.3145 78.4385 12.7147 81.1793 12.0098C82.0747 11.7799 82.8891 11.2348 83.7407 10.8342C83.7407 10.7422 83.7407 10.6503 83.7429 10.5583C83.3225 10.2935 82.9351 9.9191 82.4775 9.77899C80.1614 9.07845 77.8277 8.43483 75.4962 7.78027C75.181 7.6927 74.8416 7.68394 74.5373 7.57667C73.8915 7.34681 73.5522 6.86738 73.6923 6.18216C73.8302 5.5057 74.3272 5.081 74.9971 5.2036C78.0532 5.76622 81.118 6.32665 83.9333 7.74305C84.9622 8.2597 85.7679 8.99965 86.232 10.0745V55.9577H86.2342ZM28.3389 40.9596C28.3389 42.6256 28.3192 44.2915 28.3455 45.9553C28.3674 47.352 29.1489 48.1182 30.5522 48.1292C32.9822 48.1445 35.4122 48.1226 37.8422 48.1401C38.9061 48.1467 39.6526 47.6891 40.1846 46.7806C40.4583 46.3143 40.7713 45.848 41.1566 45.4759C43.2955 43.4137 46.6799 43.9062 48.2321 46.5267C48.8976 47.6519 49.782 48.1839 51.1065 48.1511C53.3701 48.0963 55.6381 48.1445 57.9039 48.1335C59.4538 48.127 60.2179 47.3739 60.2244 45.8218C60.2376 42.5993 60.2398 39.379 60.2244 36.1565C60.2179 34.6197 59.4254 33.8403 57.893 33.8403C48.8297 33.836 39.7643 33.836 30.7011 33.8403C29.1205 33.8403 28.3543 34.6131 28.3411 36.2112C28.328 37.794 28.3389 39.379 28.3411 40.9618L28.3389 40.9596ZM73.8105 58.5169C74.684 58.3592 75.4787 58.2804 76.234 58.0659C78.4034 57.4463 80.562 56.7962 82.7096 56.1066C83.5064 55.8504 83.8042 55.2769 83.7998 54.3574C83.7626 41.1194 83.7757 27.8814 83.7757 14.6434C83.7757 14.3325 83.7757 14.0216 83.7757 13.8969C80.4262 14.7594 77.1425 15.6044 73.8105 16.4626V58.519V58.5169ZM31.4191 50.5898C33.7243 53.9218 36.2463 56.7042 39.6417 58.5957C42.7569 60.3317 45.8612 60.3601 48.9698 58.565C52.2492 56.6692 54.8128 54.0356 56.91 50.916C56.9604 50.8416 56.9516 50.7277 56.9779 50.5898C54.931 50.5898 52.9388 50.5723 50.9488 50.5942C48.7903 50.6183 47.1856 49.7579 46.1436 47.8205C45.3204 46.2924 43.3261 46.2092 42.492 47.7176C41.3055 49.8652 39.5235 50.6839 37.1548 50.6029C35.3115 50.5395 33.4638 50.5898 31.4191 50.5898ZM25.8389 37.8794C25.0114 37.8794 24.278 37.8881 23.5468 37.875C23.1002 37.8684 22.8988 38.0699 22.901 38.5099C22.9054 40.1715 22.8857 41.8331 22.9251 43.4947C22.9295 43.7092 23.2184 44.0814 23.3979 44.0967C24.197 44.1624 25.0026 44.1251 25.8389 44.1251V37.8772V37.8794ZM62.7267 44.1361C63.5498 44.1361 64.2876 44.1886 65.01 44.1054C65.2486 44.0792 65.6273 43.7092 65.6339 43.4881C65.6865 41.8287 65.6799 40.1649 65.6427 38.5055C65.6383 38.2953 65.3515 37.9297 65.1742 37.9144C64.3751 37.8487 63.5673 37.886 62.7267 37.886V44.1361ZM41.0231 31.3556C39.7271 30.1187 38.5033 28.9497 37.2905 27.7916C36.625 28.9913 35.977 30.1559 35.3115 31.3556H41.0253H41.0231Z" fill="#C5C5C5"/>
<path d="M44.3047 55.6381C42.9233 55.6119 41.6558 55.185 40.5371 54.3334C39.8716 53.8255 39.7293 53.1534 40.1409 52.5623C40.5568 51.9647 41.2311 51.8552 41.9316 52.3368C43.556 53.4533 45.1585 53.4599 46.7851 52.3412C47.4856 51.8596 48.1599 51.9625 48.578 52.5558C48.9939 53.1425 48.8582 53.8321 48.1971 54.3334C47.0543 55.1981 45.7605 55.6294 44.3025 55.6381H44.3047Z" fill="#553EFF"/>
</svg>
